<?xml version="1.0" standalone="no"?>
<!DOCTYPE svg PUBLIC "-//W3C//DTD SVG 1.1//EN" "http://www.w3.org/Graphics/SVG/1.1/DTD/svg11.dtd" >
<svg xmlns="http://www.w3.org/2000/svg" xmlns:xlink="http://www.w3.org/1999/xlink" version="1.1">
<metadata></metadata>
<defs>
<font id="roisblack" horiz-adv-x="886" >
<font-face units-per-em="1000" ascent="720" descent="-280" />
<missing-glyph horiz-adv-x="350" />
<glyph unicode="&#xfb00;" horiz-adv-x="1147" d="M1037 636q-31 28 -80 38t-86.5 -4.5t-37.5 -49.5h148v-171h-148l1 -449h-241v449h-203l1 -449h-241v449h-115l1 171h114q4 88 57 153t130 92t170 18.5t173 -56.5l-4 -7q70 63 180 63q162 0 261 -77zM593 620q2 26 4 39q-33 20 -81.5 24.5t-87 -12.5t-38.5 -51h203z" />
<glyph unicode="&#xfb01;" horiz-adv-x="888" d="M595 620q38 -34 120.5 -34t119.5 34v-620h-240v449h-205l1 -449h-241v449h-115l1 171h115q9 151 135.5 219.5t307.5 14.5q-39 -26 -48.5 -87t12.5 -96q-81 6 -118.5 -2.5t-45.5 -48.5h201zM711 620q-50 0 -85 36t-35 88q0 51 36 87t88 36q51 0 87 -36t36 -87t-37.5 -87.5 t-89.5 -36.5z" />
<glyph unicode="&#xfb02;" horiz-adv-x="917" d="M627 720h240v-720h-240v449h-237l1 -449h-241v449h-115l1 171h114q6 114 89.5 183.5t196.5 69.5q97 0 182 -55l-80 -170q-27 20 -60 21.5t-57 -13t-30 -36.5h236v100z" />
<glyph unicode="&#xfb03;" horiz-adv-x="1298" d="M1005 620q37 -34 120 -34t120 34v-620h-240v449h-205l1 -449h-241v449h-170l1 -449h-241v449h-115l1 171h115q7 85 59.5 147t127.5 88.5t166 19t170 -53.5q63 44 147 52t179 -25q-36 -26 -45 -85t13 -95q-159 37 -167 -48h204zM1121 620q-50 0 -85 36t-35 88q0 51 36 87 t88 36q51 0 87 -36t36 -87t-37.5 -87.5t-89.5 -36.5zM561 620q1 22 6 42q-49 19 -108 7.5t-68 -49.5h170z" />
<glyph unicode="&#xfb04;" horiz-adv-x="1334" d="M1044 720h240v-720h-240v449h-224l1 -449h-241v449h-190l1 -449h-241v449h-115l1 171h115q7 86 60.5 148.5t130 88t168 16.5t170.5 -56l-3 -7q78 63 189 63q97 0 182 -55l-80 -170q-27 20 -60 21.5t-57 -13t-30 -36.5h223v100zM580 620q2 24 4 36q-48 25 -116 15.5 t-77 -51.5h189z" />
<glyph horiz-adv-x="0" />
<glyph horiz-adv-x="333" />
<glyph unicode=" "  horiz-adv-x="350" />
<glyph unicode="&#x09;" horiz-adv-x="350" />
<glyph unicode="&#xa0;" horiz-adv-x="350" />
<glyph unicode="!" horiz-adv-x="385" d="M70 720h245l-40 -489q-35 23 -81.5 23t-83.5 -23zM192 0q-45 0 -77 32t-32 77q0 44 32 76t77 32q44 0 76 -32t32 -76q0 -45 -32 -77t-76 -32z" />
<glyph unicode="&#x22;" horiz-adv-x="558" d="M50 721h195l-70 -265h-68zM313 721h195l-70 -265h-68z" />
<glyph unicode="#" horiz-adv-x="953" d="M890 454h-201l-45 -166h199l-13 -60h-202l-65 -243h-61l65 243h-266l-65 -243h-60l65 243h-191l13 60h194l45 166h-192l13 60h195l55 206h61l-55 -206h266l55 206h60l-55 -206h198zM584 288l44 166h-266l-44 -166h266z" />
<glyph unicode="$" horiz-adv-x="969" d="M518 465q396 -14 396 -244q0 -235 -378 -235h-18v-53h-60v56q-118 7 -232 31t-171 62l43 199q160 -83 360 -93v69q-69 3 -122.5 10.5t-104.5 25t-84.5 43.5t-53.5 68t-21 97q-1 112 92.5 173t281.5 61h12v55h60v-57q264 -16 380 -87l-45 -201q-53 32 -142 56t-193 31v-67 zM440 466h18v69h-18q-34 0 -58.5 -2.5t-36.5 -6t-19 -8.5t-8 -8.5t-1 -8.5q0 -11 7 -17.5t35.5 -12t80.5 -5.5zM534 186q79 0 107 8.5t28 26.5t-26.5 25.5t-108.5 8.5h-16v-69h16z" />
<glyph unicode="%" horiz-adv-x="1107" d="M285 735q108 0 172 -51t64 -140q0 -91 -63 -142t-173 -51q-109 0 -172 51t-63 142q0 88 64 139.5t171 51.5zM198 43l668 677l43 -43l-668 -677zM285 627q-50 -1 -79.5 -24.5t-29.5 -58.5q0 -38 28.5 -62t80.5 -24t81.5 24t29.5 62q0 36 -29.5 59t-81.5 24zM821 369 q108 0 172 -51t64 -140q0 -91 -63 -142t-173 -51q-109 0 -172 51t-63 142q0 88 64 139.5t171 51.5zM821 261q-50 -1 -79.5 -24.5t-29.5 -58.5q0 -38 28.5 -62t80.5 -24t81.5 24t29.5 62q0 36 -29.5 59t-81.5 24z" />
<glyph unicode="&#x26;" horiz-adv-x="1116" d="M1031 174h40v-174h-40q-159 0 -286 31q-141 -50 -359 -46q-321 4 -339 172q-21 195 248 263q-43 134 37 224.5t247 90.5q119 0 196 -52t76 -153q-1 -158 -241 -209q66 -67 151 -103q93 63 141 214l142 -74q-29 -98 -98 -181q41 -3 85 -3zM579 575q-53 0 -71 -31.5 t6 -88.5q72 10 102 24.5t30 48.5q0 21 -19 34t-48 13zM290 193q7 -39 73 -55t156 -5q-84 61 -150 150q-91 -28 -79 -90z" />
<glyph unicode="'" horiz-adv-x="295" d="M50 721h195l-70 -265h-68z" />
<glyph unicode="(" horiz-adv-x="406" d="M366 720q-118 -51 -187 -135.5t-69 -224.5t69 -224.5t187 -135.5v-64q-142 49 -229 154t-87 270t87 270t229 154v-64z" />
<glyph unicode=")" horiz-adv-x="406" d="M40 720v64q142 -49 229 -154t87 -270t-87 -270t-229 -154v64q118 51 187 135.5t69 224.5t-69 224.5t-187 135.5z" />
<glyph unicode="*" horiz-adv-x="454" d="M399 528h-118l60 -102l-53 -32l-61 105l-63 -105l-54 33l64 101h-119v62h120l-61 102l52 32l61 -104l61 104l53 -33l-61 -101h119v-62z" />
<glyph unicode="+" horiz-adv-x="750" d="M700 331v-60h-295v-271h-61v271h-294v60h294v239h61v-239h295z" />
<glyph unicode="," horiz-adv-x="359" d="M109 127h195l-184 -254h-65z" />
<glyph unicode="-" horiz-adv-x="690" d="M150 331h400v-60h-400v60z" />
<glyph unicode="." horiz-adv-x="317" d="M159 0q-45 0 -77 32t-32 77q0 44 32 76t77 32q44 0 76 -32t32 -76q0 -45 -32 -77t-76 -32z" />
<glyph unicode="/" horiz-adv-x="513" d="M410 736l54 -26l-359 -887l-55 23z" />
<glyph unicode="0" horiz-adv-x="1019" d="M508 735q212 0 336.5 -99.5t124.5 -273.5q0 -178 -123.5 -277.5t-336.5 -99.5t-336 99.5t-123 277.5q0 171 125.5 272t332.5 101zM509 524q-99 -1 -156.5 -47.5t-57.5 -115.5q0 -73 56.5 -119.5t157.5 -46.5t158 46.5t57 119.5q0 70 -57 116t-158 47z" />
<glyph unicode="1" horiz-adv-x="894" d="M567 200h272v-200h-784v200h272v226l-272 -165v248l360 211h152v-520z" />
<glyph unicode="2" horiz-adv-x="968" d="M558 253q-135 -7 -184.5 -18.5t-60.5 -33.5h584v-201h-827l-1 140v2q0 66 22.5 117t62.5 86t101 58.5t131.5 36t161.5 18.5q54 3 82 8.5t36.5 11.5t7.5 17q-1 16 -30 22.5t-96 6.5q-250 0 -427 -105l-66 199q196 116 496 117q172 1 269.5 -60.5t97.5 -171.5 q0 -123 -81 -181t-279 -69z" />
<glyph unicode="3" horiz-adv-x="952" d="M845 363q67 -46 67 -123q0 -124 -119.5 -189.5t-323.5 -65.5q-123 0 -240.5 26.5t-178.5 70.5l54 196q51 -37 156 -60t211 -23q77 0 134 12t57 29q0 7 -2 10.5t-21 8t-56 4.5h-219v208h219q37 0 56 4.5t21 8t2 10.5q0 16 -54.5 25t-136.5 9q-107 0 -211.5 -22.5 t-155.5 -59.5l-54 196q61 44 178.5 70.5t240.5 26.5q205 0 324 -63t119 -186q0 -77 -67 -123z" />
<glyph unicode="4" horiz-adv-x="1024" d="M1014 335v-200h-210v-134h-240v134h-514v200q99 29 224 139t235 246h295v-385h210zM564 472q-61 -71 -157 -137h157v137z" />
<glyph unicode="5" horiz-adv-x="961" d="M381 494q277 -5 403.5 -65.5t126.5 -203.5q0 -242 -389 -240q-300 2 -472 88l45 201q77 -37 197 -58t227 -21q77 0 112 5.5t35 24.5t-29 32t-109 21t-214 8h-173v434h756v-200h-516v-26z" />
<glyph unicode="6" horiz-adv-x="989" d="M508 484q210 0 325.5 -68t115.5 -181q0 -250 -441 -250q-245 0 -359 83.5t-114 277.5q0 185 127 287.5t346 102.5q274 0 421 -104l-45 -197q-147 91 -376 91q-95 0 -160 -26t-68 -64q43 23 107.5 35.5t120.5 12.5zM508 195q196 0 196 40q0 39 -196 39q-180 0 -232 -39 q52 -40 232 -40z" />
<glyph unicode="7" horiz-adv-x="905" d="M35 720h840v-157q-22 -15 -65 -42t-69.5 -43.5t-65.5 -47t-63 -56.5t-52.5 -66.5t-44 -83t-26.5 -100.5t-11 -124h-245q0 165 70 299.5t196 220.5h-464v200z" />
<glyph unicode="8" horiz-adv-x="990" d="M848 374q49 -23 78 -66t29 -98q0 -113 -120.5 -169t-339.5 -56t-339.5 56t-120.5 169q0 55 29 98t78 66q-76 41 -76 126q0 235 429 235t429 -235q0 -85 -76 -126zM495 535q-194 0 -194 -39q0 -40 194 -40t194 40q0 39 -194 39zM495 185q215 0 215 43q0 7 -7 13.5 t-23.5 12.5t-41 10.5t-61.5 7t-82 2.5t-82 -2.5t-61.5 -7t-41 -10.5t-23.5 -12.5t-7 -13.5q0 -43 215 -43z" />
<glyph unicode="9" horiz-adv-x="994" d="M486 736q245 0 359 -83.5t114 -277.5q0 -193 -113 -291.5t-360 -98.5q-308 0 -446 115l45 197q42 -30 92 -51.5t86 -31t90.5 -14.5t71 -5h61.5q231 0 229 91q-41 -25 -106 -37t-123 -12q-210 0 -325.5 68t-115.5 181q0 122 110 186t331 64zM290 486q0 -39 196 -39 q177 0 231 39q-53 40 -231 40q-196 0 -196 -40z" />
<glyph unicode=":" horiz-adv-x="327" d="M164 296q-45 0 -77 32t-32 77q0 44 32 76t77 32q44 0 76 -32t32 -76q0 -45 -32 -77t-76 -32zM164 0q-45 0 -77 32t-32 77q0 44 32 76t77 32q44 0 76 -32t32 -76q0 -45 -32 -77t-76 -32z" />
<glyph unicode=";" horiz-adv-x="367" d="M204 296q-45 0 -77 32t-32 77q0 44 32 76t77 32q44 0 76 -32t32 -76q0 -45 -32 -77t-76 -32zM109 127h195l-184 -254h-65z" />
<glyph unicode="&#x3c;" horiz-adv-x="597" d="M512 515l-385 -232l385 -229v-69l-462 273v49l462 278v-70z" />
<glyph unicode="=" horiz-adv-x="696" d="M50 445h596v-60h-596v60zM50 280h596v-60h-596v60z" />
<glyph unicode="&#x3e;" horiz-adv-x="597" d="M85 515v70l462 -278v-49l-462 -273v69l385 229z" />
<glyph unicode="?" horiz-adv-x="908" d="M366 239q0 54 18.5 95.5t46.5 64.5t59.5 40.5t58.5 26.5t43 19.5t13 21.5q-3 10 -19 13.5t-66 3.5q-97 0 -219.5 -34.5t-183.5 -76.5l-62 195q76 58 197 92t254 35q292 2 338 -147q18 -54 1.5 -95t-51.5 -64.5t-80.5 -46t-86 -39.5t-68.5 -45t-28 -63v-4q-35 22 -81 22 t-84 -22v8zM447 0q-45 0 -77 32t-32 77q0 44 32 76t77 32q44 0 76 -32t32 -76q0 -45 -32 -77t-76 -32z" />
<glyph unicode="@" horiz-adv-x="1219" d="M610 787q149 0 275.5 -66t200 -179.5t73.5 -247.5q0 -80 -28 -156l-39 16q25 70 25 140q0 124 -68.5 229t-185 165.5t-253.5 60.5t-254 -60.5t-185.5 -165.5t-68.5 -229q0 -125 68.5 -230t185.5 -165.5t254 -60.5q94 0 184 32q62 24 82.5 72.5t2 94.5t-61.5 69l-3 1 q-62 -96 -226 -96q-305 0 -305 192q0 81 81.5 137t223.5 56q120 0 183 -47q-9 84 -160 87q-172 2 -270 -59l-58 154q110 70 329 70q169 0 272 -63.5t104 -188.5l1 -223v-10q0 -26 -1 -42t-5 -47t-16 -54t-31 -50t-52 -49t-77 -39q-94 -35 -197 -35q-150 0 -276.5 66 t-200 180t-73.5 248t73.5 247.5t200.5 179.5t276 66zM500 203q0 -16 30.5 -26.5t81.5 -10.5q125 0 154 37q-28 38 -154 38q-51 0 -81.5 -11t-30.5 -27z" />
<glyph unicode="A" horiz-adv-x="1146" d="M865 0l-81 143h-422l-81 -143h-266l414 720h288l414 -720h-266zM470 333h206l-103 182z" />
<glyph unicode="B" horiz-adv-x="961" d="M838 361q38 -20 63 -59.5t25 -79.5q0 -222 -284 -222h-592v720h566q145 0 219 -60t74 -161q0 -34 -18.5 -73.5t-52.5 -64.5zM290 520v-70h241h12q37 0 53 0.5t35.5 4t26 11t6.5 20.5q0 23 -26 28.5t-94 5.5h-13h-241zM548 200q95 0 113 7q19 9 20 28q0 25 -27.5 30 t-105.5 5h-258v-70h258z" />
<glyph unicode="C" horiz-adv-x="989" d="M551 196q82 0 167.5 22.5t147.5 61.5l83 -187q-65 -54 -179 -81t-240 -27q-223 0 -351.5 99t-128.5 276t128.5 276t351.5 99q126 0 240 -27t179 -81l-81 -188q-62 39 -148.5 62t-168.5 23q-121 0 -188.5 -44t-67.5 -120t67.5 -120t188.5 -44z" />
<glyph unicode="D" horiz-adv-x="996" d="M481 719q229 0 354 -89t126 -271q-1 -182 -126 -271t-354 -89h-431v720h431zM483 199q233 0 233 160t-233 160h-193v-320h193z" />
<glyph unicode="E" horiz-adv-x="884" d="M50 720h784v-200h-544v-70h544v-180h-544v-70h544v-200h-784v720z" />
<glyph unicode="F" horiz-adv-x="884" d="M50 720h783v-200h-543v-88h544v-180h-544l1 -252h-241v720z" />
<glyph unicode="G" horiz-adv-x="1034" d="M549 443h435v-389q-171 -69 -415 -69q-519 0 -519 376q0 175 140 274t379 99q68 0 114 -2.5t124 -19t152 -48.5l-66 -194q-163 54 -309 54q-133 0 -211 -44t-78 -118q0 -168 289 -167q103 0 180 17v41h-215v190z" />
<glyph unicode="H" horiz-adv-x="1015" d="M725 720h240v-720h-240v260h-435v-260h-240v720h240v-260h435v260z" />
<glyph unicode="I" horiz-adv-x="890" d="M840 520h-275v-320h275v-200h-790v200h275v320h-275v200h790v-200z" />
<glyph unicode="J" horiz-adv-x="855" d="M65 720h745v-434q0 -146 -104 -223t-271 -77q-106 0 -208.5 33.5t-176.5 99.5l30 188q48 -34 154.5 -72.5t198.5 -38.5q73 0 105 25t32 79v220h-505v200z" />
<glyph unicode="K" horiz-adv-x="1035" d="M718 0l-231 355l-197 -147v-208h-240v720h240v-239l321 239h366l-301 -224l324 -496h-282z" />
<glyph unicode="L" horiz-adv-x="866" d="M50 720h240v-520h531v-200h-771v720z" />
<glyph unicode="M" horiz-adv-x="1196" d="M819 720h327v-720h-240v379l-171 -380l-274 1l-171 377v-377h-240v720h327l221 -488z" />
<glyph unicode="N" horiz-adv-x="1037" d="M747 720h240v-720h-209l-488 401v-401h-240v720h212l485 -395v395z" />
<glyph unicode="O" horiz-adv-x="1039" d="M520 734q221 0 345 -98.5t124 -274.5q0 -179 -123 -277.5t-346 -98.5t-346.5 99t-123.5 277q0 174 125 273.5t345 99.5zM519 524q-110 0 -167 -44.5t-57 -119.5q0 -77 56.5 -121t168.5 -44q111 0 167.5 44t56.5 121q0 76 -57 120t-168 44z" />
<glyph unicode="P" horiz-adv-x="914" d="M576 720q144 0 223.5 -65t79.5 -188q0 -124 -79 -187.5t-224 -63.5h-286v-216h-240v720h526zM506 416q76 0 102 9.5t26 41.5q0 31 -27 42t-101 11h-217v-104h217z" />
<glyph unicode="Q" horiz-adv-x="1039" d="M989 361q0 -180 -126 -280l51 -55l-44 -41l-58 63q-117 -63 -292 -63q-223 0 -346.5 99t-123.5 277q0 174 125 273.5t345 99.5q221 0 345 -98.5t124 -274.5zM520 195q79 0 135 24l-78 85l44 41l84 -91q39 42 39 106q0 76 -57 120t-168 44q-110 0 -167 -44.5t-57 -119.5 q0 -77 56.5 -121t168.5 -44z" />
<glyph unicode="R" horiz-adv-x="962" d="M839 113l88 -113h-289q-59 83 -97 123q-56 59 -112 83t-133 26h-6v-232h-240v720h548q143 0 223 -65t80 -183q0 -104 -61.5 -164.5t-174.5 -74.5q96 -19 174 -120zM289 520v-96h242q72 0 98.5 10t26.5 38q0 27 -27.5 37.5t-97.5 10.5h-242z" />
<glyph unicode="S" horiz-adv-x="969" d="M98 281q83 -43 183.5 -69t252.5 -26q79 0 107 8.5t28 26.5t-26.5 25.5t-108.5 8.5q-83 1 -144.5 6t-124 20.5t-102.5 42t-65 71.5t-26 106q-1 112 92.5 173t281.5 61q121 0 252.5 -23t199.5 -66l-45 -201q-64 38 -175.5 64t-237.5 26q-34 0 -58.5 -2.5t-36.5 -6t-19 -8.5 t-8 -8.5t-1 -8.5q0 -11 7 -17.5t35.5 -12t80.5 -5.5q46 0 82 -1t88 -6.5t91 -15t81 -28t69.5 -44t45 -64t17.5 -86.5q0 -235 -378 -235q-125 0 -269 25.5t-212 70.5z" />
<glyph unicode="T" horiz-adv-x="1009" d="M50 720h909v-200h-335v-520h-240v520h-334v200z" />
<glyph unicode="U" horiz-adv-x="994" d="M497 -15q-200 0 -323.5 96t-123.5 256v383h240v-327q0 -110 47.5 -151.5t159.5 -41.5t159.5 41.5t47.5 151.5v327h240v-383q0 -160 -123.5 -256t-323.5 -96z" />
<glyph unicode="V" horiz-adv-x="1062" d="M768 720h269l-371 -720h-271l-370 720h269l237 -463z" />
<glyph unicode="W" horiz-adv-x="1550" d="M1269 720h256l-312 -720h-268l-170 395l-170 -395h-268l-312 720h256l190 -442l190 442h228l190 -442z" />
<glyph unicode="X" horiz-adv-x="1113" d="M1093 0h-319l-218 218l-217 -218h-319l377 378l-342 342h317l184 -183l183 183h318l-342 -343z" />
<glyph unicode="Y" horiz-adv-x="1068" d="M1048 720l-394 -498v-222h-240v222l-394 498h293l221 -282l221 282h293z" />
<glyph unicode="Z" horiz-adv-x="992" d="M942 720v-162l-503 -358h502v-200h-891v162l502 358h-502v200h892z" />
<glyph unicode="[" horiz-adv-x="291" d="M70 780h171v-60h-111v-720h111v-50h-171v830z" />
<glyph unicode="\" horiz-adv-x="514" d="M104 736l360 -890l-55 -23l-359 887z" />
<glyph unicode="]" horiz-adv-x="291" d="M221 780v-830h-171v50h111v720h-111v60h171z" />
<glyph unicode="^" horiz-adv-x="529" d="M494 408h-71l-158 251l-159 -251h-71l206 327h47z" />
<glyph unicode="_" horiz-adv-x="600" d="M0 -187v60h600v-60h-600z" />
<glyph unicode="`" horiz-adv-x="446" d="M294 720l32 -175h-53l-173 175h194z" />
<glyph unicode="a" horiz-adv-x="891" d="M408 635q198 0 315.5 -69.5t117.5 -203.5v-362h-170l-54 77q-68 -92 -237 -92q-163 0 -246.5 56t-83.5 156q0 86 92.5 149.5t237.5 63.5q141 0 221 -70v3q0 109 -201 112q-158 2 -273 -55l-65 167q59 30 156.5 49t189.5 19zM290 197q0 -18 34.5 -29.5t101.5 -11.5 q142 0 175 41q-32 42 -175 42q-67 0 -101.5 -12t-34.5 -30z" />
<glyph unicode="b" horiz-adv-x="898" d="M530 635q148 0 240.5 -92t92.5 -230q0 -142 -91 -235t-241 -93q-167 0 -250 120l-61 -105h-170v720h240v-194q85 109 240 109zM461 177q82 0 122 38t40 98q0 55 -41 93t-121 38q-85 0 -128 -37.5t-43 -93.5q0 -59 42.5 -97.5t128.5 -38.5z" />
<glyph unicode="c" horiz-adv-x="825" d="M453 186q77 0 148 22t114 53l75 -174q-117 -101 -362 -101q-177 0 -287.5 89t-110.5 235v2q0 146 110.5 235t287.5 89q245 0 362 -101l-76 -176q-44 32 -114.5 54.5t-146.5 22.5q-89 0 -136 -36t-47 -89t47 -89t136 -36z" />
<glyph unicode="d" horiz-adv-x="898" d="M608 720h240v-720h-170l-61 105q-83 -120 -250 -120q-150 0 -241 93t-91 235q0 138 92.5 230t240.5 92q155 0 240 -109v194zM437 177q86 0 128.5 38.5t42.5 97.5q0 56 -43 93.5t-128 37.5q-80 0 -121 -38t-41 -93q0 -60 40 -98t122 -38z" />
<glyph unicode="e" d="M470 165q155 0 261 34l63 -164q-107 -50 -360 -50q-186 0 -289.5 75t-104.5 228q-2 164 94.5 255.5t302.5 91.5q213 0 306 -105.5t93 -298.5h-556q14 -37 55 -51.5t135 -14.5zM437 455q-79 0 -112.5 -17.5t-47.5 -51.5h318q-13 33 -47 51t-111 18z" />
<glyph unicode="f" horiz-adv-x="704" d="M486 671q-90 0 -97 -51h149v-160h-148l1 -460h-241v460h-115l1 160h115q10 116 94 182t199 66q144 0 230 -67l-71 -170q-18 17 -51.5 28.5t-65.5 11.5z" />
<glyph unicode="g" horiz-adv-x="920" d="M704 620h171v-454q0 -60 -26.5 -113.5t-78.5 -98t-139.5 -70.5t-200.5 -26q-248 0 -400 92l53 166q125 -78 342 -78q96 0 153 32t57 95v21q-77 -83 -226 -83q-167 0 -269.5 73.5t-102.5 191.5q0 59 23 106t60 76.5t87 49t99.5 27.5t101.5 8q77 0 142 -26t105 -74z M453 293q64 0 111 21.5t71 53.5q-58 75 -182 75q-65 0 -107 -13.5t-55.5 -29t-13.5 -32.5t13.5 -32.5t55.5 -29t107 -13.5z" />
<glyph unicode="h" horiz-adv-x="873" d="M520 635q144 0 223.5 -82t79.5 -232v-321h-240v317q0 73 -28 108.5t-92 35.5q-126 0 -173 -91v-370h-240v720h240v-193q39 49 99 78.5t131 29.5z" />
<glyph unicode="i" horiz-adv-x="347" d="M170 620q-50 0 -85 36t-35 88q0 51 36 87t88 36q51 0 87 -36t36 -87t-37.5 -87.5t-89.5 -36.5zM54 620q37 -34 119.5 -34t120.5 34v-620h-240v620z" />
<glyph unicode="j" horiz-adv-x="647" d="M470 620q-50 0 -85 36t-35 88q0 51 36 87t88 36q51 0 87 -36t36 -87t-37.5 -87.5t-89.5 -36.5zM353 620q37 -34 120 -34t120 34v-449q0 -153 -88.5 -233t-258.5 -80q-144 0 -246 84l70 173q34 -25 80.5 -42t81.5 -17q121 0 121 102v462z" />
<glyph unicode="k" horiz-adv-x="876" d="M851 620l-293 -267l293 -353h-303l-171 206h-87v-206h-240v720h240v-315l234 215h327z" />
<glyph unicode="l" horiz-adv-x="340" d="M50 720h240v-720h-240v720z" />
<glyph unicode="m" horiz-adv-x="1330" d="M990 635q290 0 290 -313v-322h-240v335q0 61 -26 92t-87 31q-45 0 -82.5 -25t-59.5 -63v-370h-240v335q0 61 -26 92t-87 31q-45 0 -82.5 -25t-59.5 -63v-370h-240v620h170l44 -127q35 63 95 102.5t136 39.5q194 0 259 -139q37 61 99 100t137 39z" />
<glyph unicode="n" horiz-adv-x="873" d="M520 635q144 0 223.5 -82t79.5 -232v-321h-240v317q0 73 -28 108.5t-92 35.5q-126 0 -173 -91v-370h-240v620h170l45 -131q35 64 103 105t152 41z" />
<glyph unicode="o" d="M443 635q184 0 293.5 -90t109.5 -235q0 -146 -109.5 -235.5t-293.5 -89.5t-293.5 89.5t-109.5 235.5q0 145 109.5 235t293.5 90zM443 185q82 1 122.5 33.5t40.5 91.5q0 58 -40.5 91t-122.5 34q-82 -1 -122.5 -34t-40.5 -91q0 -59 40.5 -91.5t122.5 -33.5z" />
<glyph unicode="p" horiz-adv-x="903" d="M531 635q150 0 241 -93t91 -235q0 -138 -92.5 -230t-240.5 -92q-155 0 -240 109v-221h-240v747h170l61 -105q83 120 250 120zM461 176q80 0 121 38t41 93q0 60 -40 98t-122 38q-86 0 -128.5 -38.5t-42.5 -97.5q0 -56 43 -93.5t128 -37.5z" />
<glyph unicode="q" horiz-adv-x="898" d="M678 620h170v-747h-240v221q-85 -109 -240 -109q-148 0 -240.5 92t-92.5 230q0 142 91 235t241 93q167 0 250 -120zM437 176q85 0 128 37.5t43 93.5q0 59 -42.5 97.5t-128.5 38.5q-82 0 -122 -38t-40 -98q0 -55 41 -93t121 -38z" />
<glyph unicode="r" horiz-adv-x="671" d="M464 635q49 0 100.5 -17t86.5 -47l-85 -168q-57 41 -142 41q-91 0 -134 -65v-379h-240v620h167l48 -115q76 130 199 130z" />
<glyph unicode="s" horiz-adv-x="836" d="M438 -15q-127 0 -233.5 24t-159.5 67l27 184q44 -36 151 -65.5t214 -29.5q114 0 114 27q0 17 -22 22t-92 5q-199 0 -287.5 53.5t-88.5 155.5q0 106 90.5 156.5t247.5 50.5q103 0 210 -17.5t166 -50.5l-46 -180q-130 68 -331 68q-97 0 -97 -27q0 -15 22 -21t76 -6 q40 0 65 -0.5t71 -4.5t76 -11.5t67.5 -23t59.5 -37t37.5 -55.5t15.5 -77q0 -207 -353 -207z" />
<glyph unicode="t" horiz-adv-x="698" d="M618 234l55 -179q-43 -33 -115 -51.5t-141 -18.5q-119 0 -185 68t-66 193v214h-136v160h65q43 0 57 14t14 57v29h241v-100h197v-160h-198v-184q0 -46 16 -65.5t52 -19.5q80 0 144 43z" />
<glyph unicode="u" horiz-adv-x="873" d="M583 620h240v-620h-170l-45 131q-35 -64 -103 -105t-152 -41q-144 0 -223.5 82t-79.5 232v321h240v-317q0 -73 28 -108.5t92 -35.5q126 0 173 91v370z" />
<glyph unicode="v" horiz-adv-x="1005" d="M717 620h268l-375 -620h-214l-376 620h269l214 -356z" />
<glyph unicode="w" horiz-adv-x="1393" d="M1121 620h252l-288 -620h-256l-132 285l-133 -285h-256l-288 620h252l164 -364l164 364h193l164 -364z" />
<glyph unicode="x" horiz-adv-x="939" d="M919 0h-301l-148 159l-149 -159h-301l299 320l-280 300h299l131 -140l131 140h302l-282 -301z" />
<glyph unicode="y" horiz-adv-x="1020" d="M728 620h272l-455 -747h-268l98 162l-355 585h271l219 -362z" />
<glyph unicode="z" horiz-adv-x="846" d="M412 190h384v-190h-746v174l379 256h-379v190h745v-172z" />
<glyph unicode="{" horiz-adv-x="528" d="M36 393q183 0 183 197q0 35 4.5 60t20 51t42.5 42t75.5 26.5t116.5 10.5v-60q-63 0 -104.5 -8.5t-61 -25.5t-26 -33.5t-6.5 -40.5v-52q0 -85 -46.5 -140.5t-119.5 -65.5q73 -10 119.5 -65.5t46.5 -140.5v-52q0 -50 40.5 -79t157.5 -29v-60q-68 0 -116.5 10.5t-75.5 26.5 t-42.5 42t-20 51t-4.5 60q0 197 -183 197h-16v78h16z" />
<glyph unicode="|" horiz-adv-x="300" d="M120 800h60v-990h-60v990z" />
<glyph unicode="}" horiz-adv-x="528" d="M492 393h16v-78h-16q-183 0 -183 -197q0 -35 -4.5 -60t-20 -51t-42.5 -42t-75.5 -26.5t-116.5 -10.5v60q117 0 157.5 29t40.5 79v52q0 85 46.5 140.5t119.5 65.5q-73 10 -119.5 65.5t-46.5 140.5v52q0 24 -6.5 40.5t-26 33.5t-61 25.5t-104.5 8.5v60q68 0 116.5 -10.5 t75.5 -26.5t42.5 -42t20 -51t4.5 -60q0 -197 183 -197z" />
<glyph unicode="~" horiz-adv-x="752" d="M642 437h60v-24q-2 -64 -50 -108t-122 -44q-46 0 -87 18.5t-67.5 40t-67.5 39.5t-86 18q-51 0 -80.5 -25.5t-31.5 -66.5v-24h-60v24q2 64 50 108t122 44q52 0 96 -18t70 -39.5t63.5 -40t78.5 -18.5q51 0 80.5 25.5t31.5 66.5v24z" />
<glyph unicode="&#xa1;" horiz-adv-x="385" d="M192 525q44 0 76 -32t32 -77q0 -44 -32 -76t-76 -32q-45 0 -77 32t-32 76q0 45 32 77t77 32zM70 -195l40 489q37 -23 83.5 -23t81.5 23l40 -489h-245z" />
<glyph unicode="&#xa2;" horiz-adv-x="825" d="M713 266l77 -179q-101 -89 -305 -99v-79h-60v77q-176 1 -285.5 90t-109.5 234v2q0 145 109.5 234t285.5 90v79h60v-81q204 -10 305 -99l-77 -179q-93 66 -228 74v-238q135 8 228 74zM270 311q0 -45 40 -79t115 -40v238q-75 -6 -115 -40t-40 -79z" />
<glyph unicode="&#xa3;" horiz-adv-x="910" d="M771 249l94 -190q-73 -46 -141.5 -60t-151.5 -14q-58 0 -132 14t-122 25t-104.5 3.5t-100.5 -43.5l-43 60q33 24 56 49t35.5 45.5t17 45t4.5 41t-7 41t-12 37t-15 35.5h-104v60h83q-36 151 69.5 243.5t322.5 92.5q105 0 197 -26t138 -74l-82 -194q-32 33 -103.5 56 t-132.5 23q-96 0 -133.5 -31t-22.5 -88q0 -1 1 -2h216v-60h-205q5 -58 -16.5 -98t-77.5 -80q22 8 52 11t50 3t56.5 -1.5t47.5 -1.5q48 0 74 2t79.5 20.5t112.5 55.5z" />
<glyph unicode="&#xa4;" horiz-adv-x="595" d="M510 132l-43 -43l-48 48q-54 -40 -122 -40q-67 0 -121 40l-48 -48l-43 43l48 48q-39 55 -39 120q0 68 40 122l-48 48l43 43l49 -49q51 39 119 39q65 0 120 -39l49 49l43 -43l-49 -49q40 -54 40 -121q0 -68 -39 -119zM154 300q0 -58 42 -100.5t101 -42.5t101 42.5 t42 100.5t-42 100.5t-101 42.5t-101 -42.5t-42 -100.5z" />
<glyph unicode="&#xa5;" horiz-adv-x="1068" d="M1048 720l-198 -251h98v-60h-146l-37 -47h183v-60h-230l-64 -80v-222h-240v222l-64 80h-230v60h183l-37 47h-146v60h98l-198 251h303l211 -269l211 269h303z" />
<glyph unicode="&#xa6;" horiz-adv-x="300" d="M120 426v374h60v-374h-60zM180 185v-375h-60v375h60z" />
<glyph unicode="&#xa7;" horiz-adv-x="969" d="M849 121q65 -45 65 -127q0 -221 -378 -221q-129 0 -269.5 22.5t-211.5 67.5l43 187q182 -89 436 -89q79 0 107 7.5t28 25.5q0 17 -26.5 24t-108.5 8q-71 1 -123.5 4t-108.5 11.5t-95 25t-71 41t-48 62t-16 87.5q0 86 63 128q-63 40 -63 130q0 106 93 163t281 57 q124 0 252 -21t200 -63l-45 -189q-64 36 -175.5 60.5t-237.5 24.5q-123 0 -123 -32q0 -10 7 -16.5t35.5 -11.5t80.5 -5q46 0 78.5 -1t86 -5.5t91.5 -13t82 -25.5t71.5 -41t46 -61t18.5 -84q0 -46 -13 -74.5t-52 -55.5zM563 227q75 0 104 6t29 24q0 17 -30 23.5t-109 7.5 h-126q-51 0 -79 -5t-34 -10.5t-6 -14.5q0 -31 131 -31h120z" />
<glyph unicode="&#xa8;" horiz-adv-x="547" d="M132 600q-34 -1 -58 23t-24 58q0 33 24 57t58 24q33 0 57 -24t24 -57t-24 -56.5t-57 -24.5zM416 600q-34 -1 -58 23t-24 58q0 33 24 57t58 24q33 0 57 -24t24 -57t-24 -56.5t-57 -24.5z" />
<glyph unicode="&#xa9;" horiz-adv-x="905" d="M453 720q166 0 284 -105.5t118 -255.5t-118 -255.5t-284 -105.5q-167 0 -285 105.5t-118 255.5t118 255.5t285 105.5zM453 36q149 0 255 94.5t106 228.5t-106 228.5t-255 94.5q-150 0 -256 -94.5t-106 -228.5t106 -228.5t256 -94.5zM463 264q108 0 185 49l49 -109 q-74 -63 -246 -63q-130 0 -205.5 58t-75.5 161t75.5 161t205.5 58q172 0 246 -63l-48 -110q-79 50 -186 50q-71 0 -110 -25.5t-39 -70.5t39 -70.5t110 -25.5z" />
<glyph unicode="&#xaa;" horiz-adv-x="500" d="M231 735q100 0 159.5 -35t59.5 -103v-183h-86l-28 39q-32 -46 -119 -46q-82 0 -124.5 28t-42.5 79q0 44 47 75.5t120 31.5q70 0 111 -35v2q0 56 -101 56q-84 0 -138 -29l-33 85q64 35 175 35zM171 514q0 -21 69 -21q73 0 88 21q-17 21 -88 21q-69 0 -69 -21z" />
<glyph unicode="&#xab;" horiz-adv-x="687" d="M304 520h61l-114 -219l114 -219h-61l-254 218zM576 520h61l-114 -219l114 -219h-61l-254 218z" />
<glyph unicode="&#xac;" horiz-adv-x="695" d="M50 490h595v-285h-60v225h-535v60z" />
<glyph unicode="&#xae;" horiz-adv-x="905" d="M453 720q166 0 284 -105.5t118 -255.5t-118 -255.5t-284 -105.5q-167 0 -285 105.5t-118 255.5t118 255.5t285 105.5zM453 36q149 0 255 94.5t106 228.5t-106 228.5t-255 94.5q-150 0 -256 -94.5t-106 -228.5t106 -228.5t256 -94.5zM562 297q50 -12 95 -70l51 -65h-161 q-44 59 -54 71q-30 36 -61 49t-76 14h-3v-134h-134v400h305q81 0 125 -34.5t44 -100.5q0 -116 -131 -130zM352 451v-48h134q40 0 55.5 4.5t15.5 19.5q0 14 -16 19t-55 5h-134z" />
<glyph unicode="&#xaf;" horiz-adv-x="531" d="M25 660v60h481v-60h-481z" />
<glyph unicode="&#xb0;" horiz-adv-x="590" d="M295 385q-73 0 -124 51t-51 124t51 124t124 51t124 -51t51 -124t-51 -124t-124 -51zM295 445q47 0 81 34t34 81t-34 81t-81 34t-81 -34t-34 -81t34 -81t81 -34z" />
<glyph unicode="&#xb1;" horiz-adv-x="650" d="M354 440h246v-60h-246v-231h-60v231h-244v60h244v199h60v-199zM50 0v60h550v-60h-550z" />
<glyph unicode="&#xb2;" horiz-adv-x="508" d="M290 510q-105 -5 -114 -24h269v-94h-383v66q0 74 56.5 107.5t166.5 40.5q59 3 59 17q-1 14 -59 14q-114 0 -199 -49l-31 92q92 55 231 55q81 0 126.5 -28.5t45.5 -79.5q0 -58 -38 -85t-130 -32z" />
<glyph unicode="&#xb3;" horiz-adv-x="492" d="M421 562q31 -21 31 -58q0 -58 -55.5 -88.5t-151.5 -30.5q-57 0 -111.5 12.5t-83.5 32.5l25 92q24 -18 73 -28.5t98 -10.5q37 0 63.5 5.5t26.5 13.5q0 11 -37 11h-103v97h103q37 0 37 11q0 16 -90 16q-49 0 -98 -10.5t-73 -28.5l-25 92q29 20 83.5 32.5t111.5 12.5 q96 0 151.5 -29t55.5 -87q0 -38 -31 -57z" />
<glyph unicode="&#xb4;" horiz-adv-x="446" d="M152 720h194l-173 -175h-53z" />
<glyph unicode="&#xb6;" horiz-adv-x="658" d="M368 720v-1q10 1 60 1v-847h-60v309q-59 0 -113 15t-101.5 45t-75.5 84t-28 125t28 125t75.5 84t101.5 45t113 15zM548 720h60v-847h-60v847z" />
<glyph unicode="&#xb7;" horiz-adv-x="377" d="M189 194q-45 0 -77 32t-32 77q0 44 32 76t77 32q44 0 76 -32t32 -76q0 -45 -32 -77t-76 -32z" />
<glyph unicode="&#xb8;" horiz-adv-x="326" d="M244 -190h-194l173 175h53z" />
<glyph unicode="&#xb9;" horiz-adv-x="476" d="M294 477h127v-93h-366v93h127v106l-127 -77v116l168 98h71v-243z" />
<glyph unicode="&#xbb;" horiz-adv-x="687" d="M111 520l254 -220l-254 -218h-61l114 219l-114 219h61zM383 520l254 -220l-254 -218h-61l114 219l-114 219h61z" />
<glyph unicode="&#xbc;" horiz-adv-x="1306" d="M951 771l47 -37l-524 -748l-49 34zM542 397v-124h-487v124h169v140l-169 -102v154l224 131h94v-323h169zM1296 205v-123h-129v-82h-147v82h-316v123q60 18 137.5 85.5t144.5 150.5h181v-236h129zM1020 289q-35 -41 -97 -84h97v84z" />
<glyph unicode="&#xbd;" horiz-adv-x="1385" d="M950 771l47 -37l-524 -748l-49 34zM542 397v-124h-487v124h169v140l-169 -102v154l224 131h94v-323h169zM1111 157q-83 -5 -113.5 -12t-37.5 -20h359v-125h-511v88q0 98 75 141.5t222 54.5q34 2 51 5.5t22 7t5 10.5q0 18 -78 18q-157 0 -265 -65l-41 124q121 71 308 72 q107 1 167.5 -37t60.5 -107q0 -76 -50.5 -112t-173.5 -43z" />
<glyph unicode="&#xbe;" horiz-adv-x="1306" d="M955 771l47 -37l-524 -748l-49 34zM585 428q0 -77 -74 -118t-201 -41q-76 0 -148.5 17t-111.5 44l34 121q31 -23 96 -37t131 -14q48 0 83.5 7.5t35.5 17.5q0 4 -1.5 6.5t-13 5t-34.5 2.5h-136v130h136q23 0 34.5 2.5t13 5t1.5 6.5q0 21 -119 21q-66 0 -131 -14t-96 -37 l-34 122q39 27 111.5 43.5t148.5 16.5q128 0 201.5 -39t73.5 -116q0 -49 -41 -76q41 -27 41 -76zM1296 205v-123h-129v-82h-147v82h-316v123q60 18 137.5 85.5t144.5 150.5h181v-236h129zM1020 289q-35 -41 -97 -84h97v84z" />
<glyph unicode="&#xbf;" horiz-adv-x="908" d="M461 580q45 0 77 -32t32 -77q0 -44 -32 -76t-77 -32q-44 0 -76 32t-32 76q0 45 32 77t76 32zM542 341q0 -54 -18.5 -95.5t-46.5 -64.5t-59.5 -40.5t-58.5 -26.5t-43 -19.5t-13 -21.5q3 -10 19 -13.5t66 -3.5q97 0 219.5 34.5t183.5 76.5l62 -195q-76 -58 -197 -92 t-254 -35q-292 -2 -338 147q-18 54 -1.5 95t51 64.5t80 46t86.5 39.5t69 45t28 63v4q35 -22 81 -22t84 22v-8z" />
<glyph unicode="&#xc0;" horiz-adv-x="1146" d="M607 745h-53l-173 175h194zM865 0l-81 143h-422l-81 -143h-266l414 720h288l414 -720h-266zM470 333h206l-103 182z" />
<glyph unicode="&#xc1;" horiz-adv-x="1146" d="M771 920l-173 -175h-53l32 175h194zM865 0l-81 143h-422l-81 -143h-266l414 720h288l414 -720h-266zM470 333h206l-103 182z" />
<glyph unicode="&#xc2;" horiz-adv-x="1146" d="M575 857l-44 -112h-158l177 175h50l177 -175h-158zM865 0l-81 143h-422l-81 -143h-266l414 720h288l414 -720h-266zM470 333h206l-103 182z" />
<glyph unicode="&#xc3;" horiz-adv-x="1146" d="M428 762v-17h-58v35q0 37 36.5 63t79.5 26q48 0 94.5 -32.5t77.5 -32.5q26 0 42 13t16 35v17h58v-35q0 -37 -36.5 -63t-79.5 -26q-40 0 -88 32.5t-84 32.5q-26 0 -42 -13t-16 -35zM865 0l-81 143h-422l-81 -143h-266l414 720h288l414 -720h-266zM470 333h206l-103 182z " />
<glyph unicode="&#xc4;" horiz-adv-x="1146" d="M252 565q-35 -1 -60.5 24.5t-25.5 60.5t25.5 60t60.5 25q34 0 59.5 -25.5t25.5 -59.5q0 -35 -25 -59.5t-60 -25.5zM895 565q-35 -1 -60.5 24.5t-25.5 60.5t25.5 60t60.5 25t60 -25.5t25 -59.5q0 -35 -25 -59.5t-60 -25.5zM865 0l-81 143h-422l-81 -143h-266l414 720h288 l414 -720h-266zM470 333h206l-103 182z" />
<glyph unicode="&#xc5;" horiz-adv-x="1146" d="M560 745q-41 0 -70 29t-29 70t29 70t70 29t70 -29t29 -70t-29 -70t-70 -29zM560 903q-24 0 -41.5 -17.5t-17.5 -41.5t17.5 -41.5t41.5 -17.5t41.5 17.5t17.5 41.5t-17.5 41.5t-41.5 17.5zM865 0l-81 143h-422l-81 -143h-266l414 720h288l414 -720h-266zM470 333h206 l-103 182z" />
<glyph unicode="&#xc6;" horiz-adv-x="1463" d="M1413 520h-544v-70h544v-180h-544v-70h544v-200h-784v143h-248l-91 -143h-275l465 720h933v-200zM502 333h127v199z" />
<glyph unicode="&#xc7;" horiz-adv-x="989" d="M551 196q82 0 167.5 22.5t147.5 61.5l83 -187q-65 -54 -179 -81t-240 -27q-223 0 -351.5 99t-128.5 276t128.5 276t351.5 99q126 0 240 -27t179 -81l-81 -188q-62 39 -148.5 62t-168.5 23q-121 0 -188.5 -44t-67.5 -120t67.5 -120t188.5 -44zM522 -214h-194l173 175h53z " />
<glyph unicode="&#xc8;" horiz-adv-x="884" d="M478 920l32 -175h-53l-173 175h194zM50 720h784v-200h-544v-65h544v-190h-544v-65h544v-200h-784v720z" />
<glyph unicode="&#xc9;" horiz-adv-x="884" d="M431 920h194l-173 -175h-53zM50 720h784v-200h-544v-65h544v-190h-544v-65h544v-200h-784v720z" />
<glyph unicode="&#xca;" horiz-adv-x="884" d="M454 857l-44 -112h-158l177 175h50l177 -175h-158zM834 520h-544v-65h544v-190h-544v-65h544v-200h-784v720h784v-200z" />
<glyph unicode="&#xcb;" horiz-adv-x="884" d="M307 746q-35 -1 -60.5 24.5t-25.5 60.5t25.5 60t60.5 25t60 -25t25 -60t-25 -59.5t-60 -25.5zM605 746q-35 -1 -60.5 24.5t-25.5 60.5t25.5 60t60.5 25t60 -25t25 -60t-25 -59.5t-60 -25.5zM50 720h784v-200h-544v-65h544v-190h-544v-65h544v-200h-784v720z" />
<glyph unicode="&#xcc;" horiz-adv-x="890" d="M469 745h-53l-173 175h194zM840 520h-275v-320h275v-200h-790v200h275v320h-275v200h790v-200z" />
<glyph unicode="&#xcd;" horiz-adv-x="890" d="M648 920l-173 -175h-53l32 175h194zM840 520h-275v-320h275v-200h-790v200h275v320h-275v200h790v-200z" />
<glyph unicode="&#xce;" horiz-adv-x="890" d="M445 857l-44 -112h-158l177 175h50l177 -175h-158zM840 520h-275v-320h275v-200h-790v200h275v320h-275v200h790v-200z" />
<glyph unicode="&#xcf;" horiz-adv-x="890" d="M297 746q-35 -1 -60.5 24.5t-25.5 60.5t25.5 60t60.5 25t60 -25t25 -60t-25 -59.5t-60 -25.5zM595 746q-35 -1 -60.5 24.5t-25.5 60.5t25.5 60t60.5 25t60 -25t25 -60t-25 -59.5t-60 -25.5zM840 520h-275v-320h275v-200h-790v200h275v320h-275v200h790v-200z" />
<glyph unicode="&#xd0;" horiz-adv-x="1041" d="M526 719q229 0 354 -89t126 -271q-1 -182 -126 -271t-354 -89h-431v338h-55v60h55v322h431zM528 199q233 0 233 160t-233 160h-193v-123h151v-60h-151v-137h193z" />
<glyph unicode="&#xd1;" horiz-adv-x="1037" d="M374 762v-17h-58v35q0 37 36.5 63t79.5 26q48 0 94.5 -32.5t77.5 -32.5q26 0 42 13t16 35v17h58v-35q0 -37 -36.5 -63t-79.5 -26q-40 0 -88 32.5t-84 32.5q-26 0 -42 -13t-16 -35zM747 720h240v-720h-209l-488 401v-401h-240v720h212l485 -395v395z" />
<glyph unicode="&#xd2;" horiz-adv-x="1039" d="M514 920l32 -175h-53l-173 175h194zM520 734q221 0 345 -98.5t124 -274.5q0 -179 -123 -277.5t-346 -98.5t-346.5 99t-123.5 277q0 174 125 273.5t345 99.5zM519 524q-110 0 -167 -44.5t-57 -119.5q0 -77 56.5 -121t168.5 -44q111 0 167.5 44t56.5 121q0 76 -57 120 t-168 44z" />
<glyph unicode="&#xd3;" horiz-adv-x="1039" d="M524 920h194l-173 -175h-53zM520 734q221 0 345 -98.5t124 -274.5q0 -179 -123 -277.5t-346 -98.5t-346.5 99t-123.5 277q0 174 125 273.5t345 99.5zM519 524q-110 0 -167 -44.5t-57 -119.5q0 -77 56.5 -121t168.5 -44q111 0 167.5 44t56.5 121q0 76 -57 120t-168 44z " />
<glyph unicode="&#xd4;" horiz-adv-x="1039" d="M521 860l-44 -105h-158l177 165h50l177 -165h-158zM520 734q221 0 345 -98.5t124 -274.5q0 -179 -123 -277.5t-346 -98.5t-346.5 99t-123.5 277q0 174 125 273.5t345 99.5zM520 195q111 0 167.5 44t56.5 121q0 76 -57 120t-168 44q-110 0 -167 -44.5t-57 -119.5 q0 -77 56.5 -121t168.5 -44z" />
<glyph unicode="&#xd5;" horiz-adv-x="1039" d="M739 869v-35q0 -37 -36.5 -63t-79.5 -26q-40 0 -88 32.5t-84 32.5q-26 0 -42 -13t-16 -35v-17h-58v35q0 37 36.5 63t79.5 26q48 0 94.5 -32.5t77.5 -32.5q26 0 42 13t16 35v17h58zM520 734q221 0 345 -98.5t124 -274.5q0 -179 -123 -277.5t-346 -98.5t-346.5 99 t-123.5 277q0 174 125 273.5t345 99.5zM519 524q-110 0 -167 -44.5t-57 -119.5q0 -77 56.5 -121t168.5 -44q111 0 167.5 44t56.5 121q0 76 -57 120t-168 44z" />
<glyph unicode="&#xd6;" horiz-adv-x="1029" d="M371 670q-35 -1 -60.5 24.5t-25.5 60.5t25.5 60t60.5 25t60 -25t25 -60t-25 -59.5t-60 -25.5zM660 670q-35 -1 -60.5 24.5t-25.5 60.5t25.5 60t60.5 25q34 0 59.5 -25t25.5 -60t-25 -59.5t-60 -25.5zM515 634q217 0 340.5 -79t123.5 -244q0 -168 -123 -247t-341 -79 t-341.5 79.5t-123.5 246.5q0 110 60 184t162 106.5t243 32.5zM514 424q-108 0 -163.5 -25t-55.5 -89q0 -66 55 -90.5t165 -24.5q109 0 164 24.5t55 90.5q0 65 -55.5 89.5t-164.5 24.5z" />
<glyph unicode="&#xd7;" horiz-adv-x="534" d="M454 454l-144 -144l144 -144l-43 -43l-144 144l-144 -144l-43 43l144 144l-144 144l43 43l144 -144l144 144z" />
<glyph unicode="&#xd8;" horiz-adv-x="1039" d="M747 699q117 -41 179.5 -128t62.5 -210q0 -179 -123 -277.5t-346 -98.5q-105 0 -186 22l-31 -53l-52 31l24 41q-109 44 -167 129.5t-58 205.5q0 174 125 273.5t345 99.5q90 0 167 -17l29 48l52 -31zM295 360q0 -102 94 -143l182 304q-24 3 -52 3q-110 0 -167 -44.5 t-57 -119.5zM520 195q111 0 167.5 44t56.5 121q0 110 -111 148l-183 -308q35 -5 70 -5z" />
<glyph unicode="&#xd9;" horiz-adv-x="994" d="M506 920l32 -175h-53l-173 175h194zM497 -15q-200 0 -323.5 96t-123.5 256v383h240v-317q0 -111 48.5 -157t158.5 -46t158.5 46t48.5 157v317h240v-383q0 -160 -123.5 -256t-323.5 -96z" />
<glyph unicode="&#xda;" horiz-adv-x="994" d="M494 920h194l-173 -175h-53zM497 -15q-200 0 -323.5 96t-123.5 256v383h240v-327q0 -110 47.5 -151.5t159.5 -41.5t159.5 41.5t47.5 151.5v327h240v-383q0 -160 -123.5 -256t-323.5 -96z" />
<glyph unicode="&#xdb;" horiz-adv-x="994" d="M496 857l-44 -112h-158l177 175h50l177 -175h-158zM944 720v-383q0 -160 -123.5 -256t-323.5 -96t-323.5 96t-123.5 256v383h240v-327q0 -110 47.5 -151.5t159.5 -41.5t159.5 41.5t47.5 151.5v327h240z" />
<glyph unicode="&#xdc;" horiz-adv-x="994" d="M497 -15q-200 0 -323.5 96t-123.5 256v383h240v-327q0 -110 47.5 -151.5t159.5 -41.5t159.5 41.5t47.5 151.5v327h240v-383q0 -160 -123.5 -256t-323.5 -96zM396 550q-35 -1 -60.5 24.5t-25.5 60.5t25.5 60t60.5 25q34 0 59.5 -25t25.5 -60t-25 -59.5t-60 -25.5zM600 550 q-35 -1 -60.5 24.5t-25.5 60.5t25.5 60t60.5 25q34 0 59.5 -25t25.5 -60t-25 -59.5t-60 -25.5z" />
<glyph unicode="&#xdd;" horiz-adv-x="1068" d="M735 920l-173 -175h-53l32 175h194zM1048 720l-394 -498v-222h-240v222l-394 498h303l211 -269l211 269h303z" />
<glyph unicode="&#xde;" horiz-adv-x="914" d="M576 620q144 0 223.5 -65t79.5 -188q0 -124 -79 -187.5t-224 -63.5h-286v-116h-240v720h239v-100h287zM506 316q76 0 102 9.5t26 41.5q0 31 -27 42t-101 11h-217l1 -104h216z" />
<glyph unicode="&#xdf;" horiz-adv-x="1105" d="M749 420q52 0 100 -9t98.5 -30.5t81.5 -67.5t31 -111q0 -95 -82 -156t-236 -61q-108 0 -200 25t-138 67l23 176q35 -33 124 -56t182 -23q100 0 100 28q0 17 -22.5 22.5t-79.5 5.5q-160 0 -237.5 46.5t-77.5 150.5q0 53 41 105q-119 -44 -119 -190l1 -341h-241v372 q0 13 2 37h-65v160h125q60 81 166 123t225 42q136 0 246.5 -46t145.5 -123l-73 -121q-44 25 -127 25q-96 0 -96 -25q0 -15 20.5 -20t81.5 -5z" />
<glyph unicode="&#xe0;" horiz-adv-x="891" d="M466 671h-53l-173 175h194zM408 635q198 0 315.5 -69.5t117.5 -203.5v-362h-170l-54 77q-68 -92 -237 -92q-163 0 -246.5 56t-83.5 156q0 86 92.5 149.5t237.5 63.5q141 0 221 -70v3q0 109 -201 112q-158 2 -273 -55l-65 167q59 30 156.5 49t189.5 19zM290 197 q0 -18 34.5 -29.5t101.5 -11.5q142 0 175 41q-32 42 -175 42q-67 0 -101.5 -12t-34.5 -30z" />
<glyph unicode="&#xe1;" horiz-adv-x="891" d="M633 846l-173 -175h-53l32 175h194zM408 635q198 0 315.5 -69.5t117.5 -203.5v-362h-170l-54 77q-68 -92 -237 -92q-163 0 -246.5 56t-83.5 156q0 86 92.5 149.5t237.5 63.5q141 0 221 -70v3q0 109 -201 112q-158 2 -273 -55l-65 167q59 30 156.5 49t189.5 19zM290 197 q0 -18 34.5 -29.5t101.5 -11.5q142 0 175 41q-32 42 -175 42q-67 0 -101.5 -12t-34.5 -30z" />
<glyph unicode="&#xe2;" horiz-adv-x="891" d="M446 783l-44 -112h-158l177 175h50l177 -175h-158zM408 635q198 0 315.5 -69.5t117.5 -203.5v-362h-170l-54 77q-68 -92 -237 -92q-163 0 -246.5 56t-83.5 156q0 86 92.5 149.5t237.5 63.5q141 0 221 -70v3q0 109 -201 112q-158 2 -273 -55l-65 167q59 30 156.5 49 t189.5 19zM290 197q0 -18 34.5 -29.5t101.5 -11.5q142 0 175 41q-32 42 -175 42q-67 0 -101.5 -12t-34.5 -30z" />
<glyph unicode="&#xe3;" horiz-adv-x="891" d="M297 688v-17h-58v35q0 37 36.5 63t79.5 26q48 0 94.5 -32.5t77.5 -32.5q26 0 42 13t16 35v17h58v-35q0 -38 -36 -63.5t-80 -25.5q-40 0 -88 32.5t-84 32.5q-26 0 -42 -13t-16 -35zM408 635q198 0 315.5 -69.5t117.5 -203.5v-362h-170l-54 77q-68 -92 -237 -92 q-163 0 -246.5 56t-83.5 156q0 86 92.5 149.5t237.5 63.5q141 0 221 -70v3q0 109 -201 112q-158 2 -273 -55l-65 167q59 30 156.5 49t189.5 19zM290 197q0 -18 34.5 -29.5t101.5 -11.5q142 0 175 41q-32 42 -175 42q-67 0 -101.5 -12t-34.5 -30z" />
<glyph unicode="&#xe4;" horiz-adv-x="891" d="M287 670q-35 -1 -60.5 24.5t-25.5 60.5t25.5 60t60.5 25t60 -25t25 -60t-25 -59.5t-60 -25.5zM585 670q-35 -1 -60.5 24.5t-25.5 60.5t25.5 60t60.5 25t60 -25t25 -60t-25 -59.5t-60 -25.5zM408 635q198 0 315.5 -69.5t117.5 -203.5v-362h-170l-54 77q-68 -92 -237 -92 q-163 0 -246.5 56t-83.5 156q0 86 92.5 149.5t237.5 63.5q141 0 221 -70v3q0 109 -201 112q-158 2 -273 -55l-65 167q59 30 156.5 49t189.5 19zM290 197q0 -18 34.5 -29.5t101.5 -11.5q142 0 175 41q-32 42 -175 42q-67 0 -101.5 -12t-34.5 -30z" />
<glyph unicode="&#xe5;" horiz-adv-x="891" d="M423 671q-41 0 -70 29t-29 70t29 70t70 29t70 -29t29 -70t-29 -70t-70 -29zM423 829q-24 0 -41.5 -17.5t-17.5 -41.5t17.5 -41.5t41.5 -17.5t41.5 17.5t17.5 41.5t-17.5 41.5t-41.5 17.5zM408 635q198 0 315.5 -69.5t117.5 -203.5v-362h-170l-54 77q-68 -92 -237 -92 q-163 0 -246.5 56t-83.5 156q0 86 92.5 149.5t237.5 63.5q141 0 221 -70v3q0 109 -201 112q-158 2 -273 -55l-65 167q59 30 156.5 49t189.5 19zM290 197q0 -18 34.5 -29.5t101.5 -11.5q142 0 175 41q-32 42 -175 42q-67 0 -101.5 -12t-34.5 -30z" />
<glyph unicode="&#xe6;" horiz-adv-x="1448" d="M1032 165q155 0 261 34l63 -164q-107 -50 -360 -50q-88 0 -155 16v-1l-1 1q-113 28 -174 97q-72 -113 -286 -113q-163 0 -246.5 56t-83.5 156q0 86 92.5 149.5t237.5 63.5q144 0 221 -67q0 108 -201 111q-164 2 -273 -56l-65 167q58 32 155 51t191 19q201 0 316 -70 q98 70 275 70q213 0 306 -106t93 -299l-556 1q14 -37 55 -51.5t135 -14.5zM999 455q-77 0 -111 -17t-48 -50v-2h317q-13 33 -47 51t-111 18zM426 156q144 0 177 41q-32 42 -177 42q-67 0 -101.5 -12t-34.5 -30t34.5 -29.5t101.5 -11.5z" />
<glyph unicode="&#xe7;" horiz-adv-x="825" d="M453 186q77 0 148 22t114 53l75 -174q-117 -101 -362 -101q-177 0 -287.5 89t-110.5 235v2q0 146 110.5 235t287.5 89q245 0 362 -101l-76 -176q-44 32 -114.5 54.5t-146.5 22.5q-89 0 -136 -36t-47 -89t47 -89t136 -36zM442 -214h-194l173 175h53z" />
<glyph unicode="&#xe8;" d="M474 671h-53l-173 175h194zM470 165q155 0 261 34l63 -164q-107 -50 -360 -50q-186 0 -289.5 75t-104.5 228q-2 164 94.5 255.5t302.5 91.5q213 0 306 -106t93 -299l-556 1q14 -37 55 -51.5t135 -14.5zM437 455q-79 0 -112.5 -17.5t-47.5 -51.5h318q-13 33 -47 51 t-111 18z" />
<glyph unicode="&#xe9;" d="M642 846l-173 -175h-53l32 175h194zM470 165q155 0 261 34l63 -164q-107 -50 -360 -50q-186 0 -289.5 75t-104.5 228q-2 164 94.5 255.5t302.5 91.5q213 0 306 -106t93 -299l-556 1q14 -37 55 -51.5t135 -14.5zM437 455q-79 0 -112.5 -17.5t-47.5 -51.5h318 q-13 33 -47 51t-111 18z" />
<glyph unicode="&#xea;" d="M434 783l-44 -112h-158l177 175h50l177 -175h-158zM470 165q155 0 261 34l63 -164q-107 -50 -360 -50q-186 0 -289.5 75t-104.5 228q-2 164 94.5 255.5t302.5 91.5q213 0 306 -106t93 -299l-556 1q14 -37 55 -51.5t135 -14.5zM437 455q-79 0 -112.5 -17.5t-47.5 -51.5 h318q-13 33 -47 51t-111 18z" />
<glyph unicode="&#xeb;" d="M297 670q-35 -1 -60.5 24.5t-25.5 60.5t25.5 60t60.5 25t60 -25t25 -60t-25 -59.5t-60 -25.5zM595 670q-35 -1 -60.5 24.5t-25.5 60.5t25.5 60t60.5 25t60 -25t25 -60t-25 -59.5t-60 -25.5zM470 165q155 0 261 34l63 -164q-107 -50 -360 -50q-186 0 -289.5 75t-104.5 228 q-2 164 94.5 255.5t302.5 91.5q213 0 306 -106t93 -299l-556 1q14 -37 55 -51.5t135 -14.5zM437 455q-79 0 -112.5 -17.5t-47.5 -51.5h318q-13 33 -47 51t-111 18z" />
<glyph unicode="&#xec;" horiz-adv-x="359" d="M174 846l32 -175h-53l-173 175h194zM69 620q38 -34 120.5 -34t119.5 34v-620h-240v620z" />
<glyph unicode="&#xed;" horiz-adv-x="337" d="M173 846h194l-173 -175h-53zM50 620q38 -34 120 -34t120 34v-620h-240v620z" />
<glyph unicode="&#xee;" horiz-adv-x="434" d="M217 783l-44 -112h-158l177 175h50l177 -175h-158zM98 620q37 -34 119.5 -34t120.5 34v-620h-240v620z" />
<glyph unicode="&#xef;" horiz-adv-x="479" d="M136 672q-35 -1 -60.5 24.5t-25.5 60.5t25.5 60t60.5 25q34 0 59.5 -25t25.5 -60t-25 -59.5t-60 -25.5zM344 672q-35 -1 -60.5 24.5t-25.5 60.5t25.5 60t60.5 25q34 0 59.5 -25t25.5 -60t-25 -59.5t-60 -25.5zM120 620q37 -34 119.5 -34t120.5 34v-620h-240v620z" />
<glyph unicode="&#xf0;" horiz-adv-x="909" d="M328 732q531 -25 531 -442q0 -149 -112.5 -227t-322.5 -78q-172 0 -273 59.5t-101 182.5q0 114 106 178t268 64q116 0 199 -51q-30 51 -117 84.5t-213 44.5l-11 -59l-56 10l10 52q-57 3 -118 0l34 182q64 3 119 2l10 55l56 -10zM454 186q149 0 188 40q-40 42 -188 42 q-95 0 -138 -9t-43 -32q0 -41 181 -41z" />
<glyph unicode="&#xf1;" horiz-adv-x="873" d="M302 688v-17h-58v35q0 37 36.5 63t79.5 26q48 0 94.5 -32.5t77.5 -32.5q26 0 42 13t16 35v17h58v-35q0 -38 -36 -63.5t-80 -25.5q-40 0 -88 32.5t-84 32.5q-26 0 -42 -13t-16 -35zM520 635q144 0 223.5 -82t79.5 -232v-321h-240v317q0 73 -28 108.5t-92 35.5 q-126 0 -173 -91v-370h-240v620h170l45 -131q35 64 103 105t152 41z" />
<glyph unicode="&#xf2;" d="M435 846l32 -175h-53l-173 175h194zM443 635q184 0 293.5 -90t109.5 -235q0 -146 -109.5 -235.5t-293.5 -89.5t-293.5 89.5t-109.5 235.5q0 145 109.5 235t293.5 90zM443 185q82 1 122.5 33.5t40.5 91.5q0 58 -40.5 91t-122.5 34q-82 -1 -122.5 -34t-40.5 -91 q0 -59 40.5 -91.5t122.5 -33.5z" />
<glyph unicode="&#xf3;" d="M448 846h194l-173 -175h-53zM443 635q184 0 293.5 -90t109.5 -235q0 -146 -109.5 -235.5t-293.5 -89.5t-293.5 89.5t-109.5 235.5q0 145 109.5 235t293.5 90zM443 185q82 1 122.5 33.5t40.5 91.5q0 58 -40.5 91t-122.5 34q-82 -1 -122.5 -34t-40.5 -91q0 -59 40.5 -91.5 t122.5 -33.5z" />
<glyph unicode="&#xf4;" d="M439 783l-44 -112h-158l177 175h50l177 -175h-158zM443 635q184 0 293.5 -90t109.5 -235q0 -146 -109.5 -235.5t-293.5 -89.5t-293.5 89.5t-109.5 235.5q0 145 109.5 235t293.5 90zM443 185q82 1 122.5 33.5t40.5 91.5q0 58 -40.5 91t-122.5 34q-82 -1 -122.5 -34 t-40.5 -91q0 -59 40.5 -91.5t122.5 -33.5z" />
<glyph unicode="&#xf5;" d="M633 795v-35q0 -38 -36 -63.5t-80 -25.5q-40 0 -88 32.5t-84 32.5q-26 0 -42 -13t-16 -35v-17h-58v35q0 37 36.5 63t79.5 26q48 0 94.5 -32.5t77.5 -32.5q26 0 42 13t16 35v17h58zM443 635q184 0 293.5 -90t109.5 -235q0 -146 -109.5 -235.5t-293.5 -89.5t-293.5 89.5 t-109.5 235.5q0 145 109.5 235t293.5 90zM443 185q82 1 122.5 33.5t40.5 91.5q0 58 -40.5 91t-122.5 34q-82 -1 -122.5 -34t-40.5 -91q0 -59 40.5 -91.5t122.5 -33.5z" />
<glyph unicode="&#xf6;" d="M295 670q-35 -1 -60.5 24.5t-25.5 60.5t25.5 60t60.5 25t60 -25t25 -60t-25 -59.5t-60 -25.5zM593 670q-35 -1 -60.5 24.5t-25.5 60.5t25.5 60t60.5 25t60 -25t25 -60t-25 -59.5t-60 -25.5zM443 635q184 0 293.5 -90t109.5 -235q0 -146 -109.5 -235.5t-293.5 -89.5 t-293.5 89.5t-109.5 235.5q0 145 109.5 235t293.5 90zM443 185q82 1 122.5 33.5t40.5 91.5q0 58 -40.5 91t-122.5 34q-82 -1 -122.5 -34t-40.5 -91q0 -59 40.5 -91.5t122.5 -33.5z" />
<glyph unicode="&#xf7;" horiz-adv-x="750" d="M375 375q-41 0 -69.5 28.5t-28.5 69.5q0 40 29 68.5t69 28.5t68.5 -28.5t28.5 -68.5t-28.5 -69t-68.5 -29zM50 319h650v-60h-650v60zM375 0q-41 0 -69.5 29t-28.5 69t29 68.5t69 28.5t68.5 -28.5t28.5 -68.5t-28.5 -69t-68.5 -29z" />
<glyph unicode="&#xf8;" d="M649 597q94 -39 145.5 -114t51.5 -173q0 -146 -109.5 -235.5t-293.5 -89.5q-81 0 -147 18l-30 -51l-56 33l23 39q-92 40 -142.5 114.5t-50.5 171.5q0 145 109.5 235t293.5 90q75 0 143 -17l29 50l56 -33zM280 310q0 -73 61 -104l135 227q-22 2 -33 2q-82 -1 -122.5 -34 t-40.5 -91zM443 185q82 1 122.5 33.5t40.5 91.5q0 75 -65 106l-135 -229q22 -2 37 -2z" />
<glyph unicode="&#xf9;" horiz-adv-x="873" d="M467 671h-53l-173 175h194zM583 620h240v-620h-170l-45 131q-35 -64 -103 -105t-152 -41q-144 0 -223.5 82t-79.5 232v321h240v-317q0 -73 28 -108.5t92 -35.5q126 0 173 91v370z" />
<glyph unicode="&#xfa;" horiz-adv-x="873" d="M642 846l-173 -175h-53l32 175h194zM583 620h240v-620h-170l-45 131q-35 -64 -103 -105t-152 -41q-144 0 -223.5 82t-79.5 232v321h240v-317q0 -73 28 -108.5t92 -35.5q126 0 173 91v370z" />
<glyph unicode="&#xfb;" horiz-adv-x="873" d="M440 783l-44 -112h-158l177 175h50l177 -175h-158zM583 620h240v-620h-170l-45 131q-35 -64 -103 -105t-152 -41q-144 0 -223.5 82t-79.5 232v321h240v-317q0 -73 28 -108.5t92 -35.5q126 0 173 91v370z" />
<glyph unicode="&#xfc;" horiz-adv-x="873" d="M289 670q-35 -1 -60.5 24.5t-25.5 60.5t25.5 60t60.5 25t60 -25t25 -60t-25 -59.5t-60 -25.5zM587 670q-35 -1 -60.5 24.5t-25.5 60.5t25.5 60t60.5 25t60 -25t25 -60t-25 -59.5t-60 -25.5zM583 620h240v-620h-170l-45 131q-35 -64 -103 -105t-152 -41q-144 0 -223.5 82 t-79.5 232v321h240v-317q0 -73 28 -108.5t92 -35.5q126 0 173 91v370z" />
<glyph unicode="&#xfd;" horiz-adv-x="1020" d="M700 846l-173 -175h-53l32 175h194zM731 620h269l-455 -747h-265l96 159l-356 588h268l222 -367z" />
<glyph unicode="&#xfe;" horiz-adv-x="903" d="M531 635q150 0 241 -93t91 -235q0 -138 -92.5 -230t-240.5 -92q-155 0 -240 109v-221h-240v847h240v-194q84 109 241 109zM461 176q80 0 121 38t41 93q0 60 -40 98t-122 38q-86 0 -128.5 -38.5t-42.5 -97.5q0 -56 43 -93.5t128 -37.5z" />
<glyph unicode="&#xff;" horiz-adv-x="1020" d="M349 670q-35 -1 -60.5 24.5t-25.5 60.5t25.5 60t60.5 25t60 -25t25 -60t-25 -59.5t-60 -25.5zM647 670q-35 -1 -60.5 24.5t-25.5 60.5t25.5 60t60.5 25t60 -25t25 -60t-25 -59.5t-60 -25.5zM731 620h269l-455 -747h-265l96 159l-356 588h268l222 -367z" />
<glyph unicode="&#x13f;" horiz-adv-x="866" d="M50 720h240v-520h531v-200h-771v720zM546 365q-34 -1 -58 23t-24 58q0 33 24 57t58 24q33 0 57 -24t24 -57t-24 -56.5t-57 -24.5z" />
<glyph unicode="&#x140;" horiz-adv-x="546" d="M50 720h240v-720h-240v720zM415 295q-34 -1 -58 23t-24 58q0 33 24 57t58 24q33 0 57 -24t24 -57t-24 -56.5t-57 -24.5z" />
<glyph unicode="&#x152;" horiz-adv-x="1584" d="M1534 520h-544v-70h544v-180h-544v-70h544v-200h-857q-72 -15 -157 -15q-223 0 -346.5 99t-123.5 277q0 174 125 273.5t345 99.5q79 0 151 -14h863v-200zM295 360q0 -77 56.5 -121t168.5 -44q111 0 167.5 44t56.5 121q0 76 -57 120t-168 44q-110 0 -167 -44.5t-57 -119.5 z" />
<glyph unicode="&#x153;" horiz-adv-x="1452" d="M1036 165q155 0 261 34l63 -164q-107 -50 -360 -50q-195 0 -284 77q-93 -77 -273 -77q-188 0 -295.5 89t-107.5 236q0 146 107.5 235.5t295.5 89.5q185 0 278 -82q88 82 282 82q213 0 306 -106t93 -301l-555 1q14 -35 55.5 -49.5t133.5 -14.5zM1004 455 q-79 0 -112.5 -17.5t-47.5 -51.5h318q-13 33 -47 51t-111 18zM443 185q82 1 122.5 33.5t40.5 91.5q0 58 -40.5 91t-122.5 34q-82 -1 -122.5 -34t-40.5 -91q0 -59 40.5 -91.5t122.5 -33.5z" />
<glyph unicode="&#x178;" horiz-adv-x="1068" d="M387 746q-35 -1 -60.5 24.5t-25.5 60.5t25.5 60t60.5 25t60 -25t25 -60t-25 -59.5t-60 -25.5zM685 746q-35 -1 -60.5 24.5t-25.5 60.5t25.5 60t60.5 25t60 -25t25 -60t-25 -59.5t-60 -25.5zM1048 720l-394 -498v-222h-240v222l-394 498h303l211 -269l211 269h303z" />
<glyph unicode="&#x2c6;" horiz-adv-x="454" d="M429 545h-158l-44 112l-44 -112h-158l177 175h50z" />
<glyph unicode="&#x2dc;" horiz-adv-x="500" d="M475 730v-16q0 -45 -35 -76t-86 -31q-49 0 -107 39t-101 39q-32 0 -51 -15.5t-19 -41.5v-16h-51v16q0 45 35 76t86 31q46 0 81 -19.5t64.5 -39t62.5 -19.5q32 0 51 15.5t19 41.5v16h51z" />
<glyph unicode="&#x2013;" horiz-adv-x="883" d="M100 331h683v-60h-683v60z" />
<glyph unicode="&#x2014;" horiz-adv-x="1020" d="M100 331h820v-60h-820v60z" />
<glyph unicode="&#x2018;" horiz-adv-x="359" d="M250 466h-195l184 254h65z" />
<glyph unicode="&#x2019;" horiz-adv-x="359" d="M109 720h195l-184 -254h-65z" />
<glyph unicode="&#x201a;" horiz-adv-x="359" d="M109 127h195l-184 -254h-65z" />
<glyph unicode="&#x201c;" horiz-adv-x="621" d="M245 466h-195l184 254h65zM517 466h-195l184 254h65z" />
<glyph unicode="&#x201d;" horiz-adv-x="621" d="M104 720h195l-184 -254h-65zM376 720h195l-184 -254h-65z" />
<glyph unicode="&#x201e;" horiz-adv-x="621" d="M104 127h195l-184 -254h-65zM376 127h195l-184 -254h-65z" />
<glyph unicode="&#x2022;" horiz-adv-x="440" d="M80 300q0 58 41 99t99 41t99 -41t41 -99t-41 -98.5t-99 -40.5t-99 40.5t-41 98.5z" />
<glyph unicode="&#x2026;" horiz-adv-x="953" d="M159 0q-45 0 -77 32t-32 77q0 44 32 76t77 32q44 0 76 -32t32 -76q0 -45 -32 -77t-76 -32zM477 0q-45 0 -77 32t-32 77q0 44 32 76t77 32q44 0 76 -32t32 -76q0 -45 -32 -77t-76 -32zM795 0q-45 0 -77 32t-32 77q0 44 32 76t77 32q44 0 76 -32t32 -76q0 -45 -32 -77 t-76 -32z" />
<glyph unicode="&#x2039;" horiz-adv-x="395" d="M284 520h61l-114 -219l114 -219h-61l-254 218z" />
<glyph unicode="&#x203a;" horiz-adv-x="395" d="M111 520l254 -220l-254 -218h-61l114 219l-114 219h61z" />
<glyph unicode="&#x20ac;" horiz-adv-x="1059" d="M621 196q82 0 167.5 22.5t147.5 61.5l83 -187q-65 -54 -179 -81t-240 -27q-193 0 -316.5 75t-154.5 212h-79v60h71q-1 9 -1 28q0 13 2 37h-72v60h82q33 132 156 205t312 73q126 0 240 -27t179 -81l-81 -188q-62 39 -148.5 62t-168.5 23q-150 0 -217 -67h310v-60h-344 q-5 -20 -5 -37q0 -14 3 -28h346v-60h-318q63 -76 225 -76z" />
<glyph unicode="&#x2122;" horiz-adv-x="1028" d="M818 720h160v-352h-117v186l-84 -187l-133 1l-83 184v-184h-117v254h-114v-254h-117v254h-163v98h553l108 -238z" />
<glyph unicode="&#x25fc;" horiz-adv-x="620" d="M0 620h620v-620h-620v620z" />
<glyph horiz-adv-x="889" d="M284 220h-39l-96 207l-42 -207h-57l69 321h38l96 -208l45 208h57zM665 220l67 318h56l-56 -267h112l-16 -51h-163zM375 340l9 39h254l-7 -39h-256z" />
<glyph horiz-adv-x="856" d="M427 601q174 0 276.5 -81.5t102.5 -224.5q0 -146 -101.5 -228t-276.5 -82t-276.5 82t-101.5 228q0 141 103 223.5t274 82.5zM428 428q-81 -1 -128.5 -39t-47.5 -95q0 -60 46.5 -98t129.5 -38t130 38t47 98q0 57 -47.5 95t-129.5 39z" />
<glyph horiz-adv-x="814" d="M520 170h239v-170h-704v170h245v160l-245 -135v208l315 167h150v-400z" />
<glyph horiz-adv-x="856" d="M489 200q-163 -9 -189 -30h476v-170h-708l-1 112q0 235 414 257q61 3 80.5 7t19.5 15q0 17 -67 17q-240 0 -398 -94l-61 164q72 43 191.5 75.5t243.5 32.5q172 0 244 -51.5t72 -146.5t-73 -136.5t-244 -51.5z" />
<glyph horiz-adv-x="865" d="M755 240q70 -41 70 -115q0 -109 -107 -170t-300 -61q-112 0 -211.5 23.5t-156.5 62.5l46 168q52 -33 141.5 -53t182.5 -20q79 0 132 12.5t53 32.5q0 17 -17.5 23t-63.5 6h-198v180h198q45 0 63 6t18 23q0 39 -185 39q-95 0 -184 -19t-140 -53l-46 168q57 39 156.5 63 t211.5 24q195 0 301 -59t106 -167q0 -73 -70 -114z" />
<glyph horiz-adv-x="955" d="M945 202v-170h-196v-127h-220v127h-479v184q91 27 207 128.5t219 227.5h273v-370h196zM529 343q-62 -73 -165 -141h165v141z" />
<glyph horiz-adv-x="889" d="M353 363q254 -5 370 -60.5t116 -185.5q0 -223 -357 -221q-272 2 -432 82l41 170q71 -34 181 -53t207 -19q135 0 135 41q0 65 -322 65h-159v387h692v-170h-472v-36z" />
<glyph horiz-adv-x="920" d="M477 472q192 0 297.5 -62.5t105.5 -172.5q0 -237 -403 -237q-233 0 -337.5 81.5t-104.5 263.5q0 172 119 272.5t323 100.5q134 0 225 -23t163 -75l-37 -165q-137 83 -351 83q-89 0 -155.5 -35t-67.5 -77q38 23 103 34.5t120 11.5zM477 180q91 0 137.5 15.5t46.5 41.5 q0 24 -47 39.5t-137 15.5q-163 0 -229 -56q63 -56 229 -56z" />
<glyph horiz-adv-x="853" d="M35 570h788v-146q-21 -14 -61 -39t-65.5 -41t-62 -44t-60 -53t-50.5 -62.5t-42 -78t-25.5 -94.5t-10.5 -116h-220q0 163 71 294t199 210h-461v170z" />
<glyph horiz-adv-x="954" d="M805 374q53 -21 83.5 -63.5t30.5 -97.5q0 -104 -112.5 -158.5t-329.5 -54.5q-216 0 -329 54.5t-113 158.5q0 55 31 98t85 63l-2 1q-39 16 -61 48.5t-22 73.5q0 223 411 223q412 0 412 -223q0 -41 -22 -73.5t-62 -48.5v-1zM477 539q-197 0 -197 -43q0 -45 197 -45t197 45 q0 43 -197 43zM477 181q217 0 217 49q0 23 -58 36t-159 13t-159 -13t-58 -36q0 -49 217 -49z" />
<glyph horiz-adv-x="928" d="M451 113q-186 0 -294.5 63t-108.5 172q0 117 102.5 177t300.5 60q233 0 337.5 -81.5t104.5 -263.5q0 -172 -118.5 -269.5t-323.5 -97.5q-273 0 -411 99l37 165q148 -90 374 -90q89 0 155.5 35t67.5 77q-38 -23 -103 -34.5t-120 -11.5zM451 405q-91 0 -137.5 -15.5 t-46.5 -41.5q0 -24 47 -39.5t137 -15.5q163 0 229 56q-63 56 -229 56z" />
</font>
</defs>
</svg>
