<?xml version="1.0" standalone="no"?>
<!DOCTYPE svg PUBLIC "-//W3C//DTD SVG 1.1//EN" "http://www.w3.org/Graphics/SVG/1.1/DTD/svg11.dtd" >
<svg xmlns="http://www.w3.org/2000/svg" xmlns:xlink="http://www.w3.org/1999/xlink" version="1.1">
<metadata></metadata>
<defs>
<font id="roisbold" horiz-adv-x="822" >
<font-face units-per-em="1000" ascent="720" descent="-280" />
<missing-glyph horiz-adv-x="320" />
<glyph unicode="&#xfb00;" horiz-adv-x="1035" d="M812 617q-64 0 -71 -47h138v-141h-139v-429h-200v430h-180v-430h-200v430h-125l1 140h124q2 121 81.5 192.5t191.5 71.5q118 0 208 -77q59 35 137 35q73 0 132 -21.5t90 -45.5l-56 -152q-64 44 -132 44zM541 570q1 25 9 60q-44 35 -96 35q-40 0 -67 -22.5t-27 -62.5v-10 h181z" />
<glyph unicode="&#xfb01;" horiz-adv-x="874" d="M611 570q45 -22 100 -22t100 22v-570h-200v429h-251l1 -429h-201v429h-125v141h126q4 81 41.5 141.5t96 90t133 36t153.5 -21.5q-28 -28 -38.5 -71t2.5 -81q-83 20 -132 -3.5t-56 -90.5h250zM707 600q-47 0 -78.5 33t-31.5 81q0 47 33.5 80t80.5 33t80 -33.5t33 -79.5 q0 -47 -35 -80.5t-82 -33.5z" />
<glyph unicode="&#xfb02;" horiz-adv-x="859" d="M609 720h200v-720h-200v430h-249v-430h-200v430h-125l1 140h124q1 69 22.5 122t57 82.5t75 44.5t81.5 15q125 0 193 -54l-54 -141q-40 27 -92 27q-33 0 -58 -23.5t-25 -57.5v-15h249v150z" />
<glyph unicode="&#xfb03;" horiz-adv-x="1264" d="M1001 570q45 -22 100 -22t100 22v-570h-200v430h-251v-430h-200v430h-190v-430h-200v430h-125l1 140h125q1 129 83.5 197.5t198.5 68.5q125 0 202 -65q60 52 147.5 64t182.5 -19q-28 -28 -38.5 -71t2.5 -81q-83 20 -132 -3.5t-56 -90.5h250zM1097 600q-47 0 -78.5 33 t-31.5 81q0 47 33.5 80t80.5 33t80 -33.5t33 -79.5q0 -47 -35 -80.5t-82 -33.5zM551 570q1 34 12 73q-81 40 -137.5 18.5t-64.5 -91.5h190z" />
<glyph unicode="&#xfb04;" horiz-adv-x="1249" d="M999 720h200v-720h-200v430h-249v-430h-200v430h-190v-430h-200v430h-125l1 140h124q2 121 81.5 192.5t191.5 71.5q106 0 192 -64q65 64 161 64q125 0 193 -54l-54 -141q-40 27 -92 27q-33 0 -58 -23.5t-25 -57.5v-15h249v150zM550 570q0 28 5 56q-45 39 -101 39 q-40 0 -67 -22.5t-27 -62.5v-10h190z" />
<glyph horiz-adv-x="0" />
<glyph horiz-adv-x="333" />
<glyph unicode=" "  horiz-adv-x="320" />
<glyph unicode="&#x09;" horiz-adv-x="320" />
<glyph unicode="&#xa0;" horiz-adv-x="320" />
<glyph unicode="!" horiz-adv-x="355" d="M105 216l-30 504h205l-30 -504q-32 18 -71 18t-74 -18zM177 0q-41 0 -69.5 29t-28.5 69t29 68.5t69 28.5t68.5 -28.5t28.5 -68.5t-28.5 -69t-68.5 -29z" />
<glyph unicode="&#x22;" horiz-adv-x="508" d="M101 467l-51 254h175l-64 -254h-60zM334 467l-51 254h175l-64 -254h-60z" />
<glyph unicode="#" horiz-adv-x="953" d="M890 454h-201l-45 -166h199l-13 -60h-202l-65 -243h-61l65 243h-266l-65 -243h-60l65 243h-191l13 60h194l45 166h-192l13 60h195l55 206h61l-55 -206h266l55 206h60l-55 -206h198zM584 288l44 166h-266l-44 -166h266z" />
<glyph unicode="$" horiz-adv-x="940" d="M885 219q0 -114 -102.5 -171.5t-280.5 -62.5v-52h-60v53q-110 3 -214 33.5t-173 81.5l41 180q119 -89 346 -108v95q-86 3 -148 14.5t-116 37t-81.5 71.5t-27.5 112q0 114 101 172.5t272 59.5v55h60v-56q235 -13 371 -106l-40 -180q-111 78 -331 98v-92q66 -2 116.5 -8 t103 -21.5t86.5 -40t55.5 -66.5t21.5 -99zM414 456h28v94h-30q-139 0 -139 -47q0 -45 141 -47zM530 170q71 0 110.5 13t39.5 36q0 47 -150 47h-28v-96h28z" />
<glyph unicode="%" horiz-adv-x="1051" d="M281 350q-105 0 -168 52.5t-63 141.5q0 87 64 140t167 51q101 -2 165.5 -53.5t64.5 -137.5q0 -89 -62.5 -141.5t-167.5 -52.5zM211 0l-43 43l668 677l43 -43zM281 450q51 0 85 25.5t34 67.5q0 41 -35 67t-84 25q-51 -1 -85.5 -26t-34.5 -66q0 -42 34.5 -67.5t85.5 -25.5z M771 -15q-105 0 -168 52.5t-63 141.5q0 87 64 140t167 51q101 -2 165.5 -53.5t64.5 -137.5q0 -89 -62.5 -141.5t-167.5 -52.5zM771 85q51 0 85 25.5t34 67.5q0 41 -35 67t-84 25q-51 -1 -85.5 -26t-34.5 -66q0 -42 34.5 -67.5t85.5 -25.5z" />
<glyph unicode="&#x26;" horiz-adv-x="1057" d="M977 154h30v-154h-30q-165 0 -301 49q-95 -39 -201.5 -55t-197.5 -6t-154.5 54t-71.5 117q-9 85 48.5 151.5t186.5 101.5q-25 64 -19 122.5t34 103t89.5 71t148.5 26.5q121 0 190 -52.5t68 -152.5q-1 -78 -61 -126t-191 -71q65 -68 151 -112q83 67 132 211l123 -74 q-37 -111 -106 -190q65 -14 132 -14zM539 595q-64 0 -81 -43.5t14 -109.5q78 9 111.5 25t33.5 61q0 28 -19.5 47.5t-58.5 19.5zM254 189q11 -56 88 -69t166 14q-100 70 -165 166q-50 -18 -72.5 -48t-16.5 -63z" />
<glyph unicode="'" horiz-adv-x="275" d="M101 467l-51 254h175l-64 -254h-60z" />
<glyph unicode="(" horiz-adv-x="406" d="M366 -64q-142 49 -229 154t-87 270t87 270t229 154v-64q-118 -51 -187 -135.5t-69 -224.5t69 -224.5t187 -135.5v-64z" />
<glyph unicode=")" horiz-adv-x="406" d="M40 -64v64q118 51 187 135.5t69 224.5t-69 224.5t-187 135.5v64q142 -49 229 -154t87 -270t-87 -270t-229 -154z" />
<glyph unicode="*" horiz-adv-x="454" d="M164 394l-54 33l64 101h-119v62h120l-61 102l52 32l61 -104l61 104l53 -33l-61 -101h119v-62h-118l60 -102l-53 -32l-61 105z" />
<glyph unicode="+" horiz-adv-x="750" d="M700 331v-60h-295v-271h-61v271h-294v60h294v239h61v-239h295z" />
<glyph unicode="," horiz-adv-x="329" d="M55 -127l44 254h175l-159 -254h-60z" />
<glyph unicode="-" horiz-adv-x="680" d="M140 271v60h400v-60h-400z" />
<glyph unicode="." horiz-adv-x="305" d="M153 0q-41 0 -69.5 29t-28.5 69t29 68.5t69 28.5t68.5 -28.5t28.5 -68.5t-28.5 -69t-68.5 -29z" />
<glyph unicode="/" horiz-adv-x="514" d="M105 -177l-55 23l360 890l54 -26z" />
<glyph unicode="0" horiz-adv-x="979" d="M490 -15q-198 0 -316.5 102t-118.5 275q0 169 120 270.5t315 101.5q197 0 315.5 -101t118.5 -271q0 -173 -118.5 -275t-315.5 -102zM490 175q104 0 166.5 50t62.5 136q0 84 -62.5 133.5t-167.5 49.5q-104 0 -166.5 -49.5t-62.5 -133.5q0 -86 62.5 -136t167.5 -50z" />
<glyph unicode="1" horiz-adv-x="821" d="M510 180h256v-180h-711v180h255v275l-253 -178v211l341 232h112v-540z" />
<glyph unicode="2" horiz-adv-x="915" d="M494 252q-82 -5 -126 -12.5t-63.5 -21.5t-22.5 -38h564v-180h-779l-1 142v2q0 54 15.5 97.5t45.5 73t65.5 51t82 35t88.5 21t93 11.5q33 3 53.5 5.5t47 6t41.5 8.5t29 11.5t19.5 16t4.5 21.5q-4 44 -128 44q-103 0 -225.5 -33t-188.5 -85l-54 179q66 55 194.5 91.5 t257.5 36.5q338 0 357 -214q5 -55 -11 -99t-56.5 -81t-117 -60t-185.5 -29z" />
<glyph unicode="3" horiz-adv-x="906" d="M794 361q72 -51 72 -129q0 -87 -60 -144.5t-149.5 -80.5t-203.5 -23q-118 0 -230.5 26.5t-172.5 68.5l43 177q59 -43 161 -66t201 -23q90 0 145.5 17t55.5 48q0 25 -44 33t-129 8h-97h-54v178h54h151q60 0 84.5 7t24.5 28q0 31 -54.5 48t-139.5 17q-99 0 -199.5 -23 t-159.5 -66l-43 177q60 42 171 68.5t229 26.5q110 0 198 -23t148 -80.5t60 -144.5q0 -42 -11 -68t-51 -57z" />
<glyph unicode="4" horiz-adv-x="1014" d="M744 351h220v-180h-220v-170h-200v170h-494v180q114 32 230.5 140.5t198.5 228.5l265 1v-370zM389 351h155v164q-24 -43 -66 -88t-89 -76z" />
<glyph unicode="5" horiz-adv-x="915" d="M347 483q127 -2 220.5 -17t149 -38t88.5 -58.5t44 -71t11 -81.5q0 -62 -28.5 -108t-79 -72.5t-112.5 -39t-135 -12.5q-125 0 -250.5 33t-199.5 86l41 188q73 -52 205 -85t238 -33q116 0 116 43q0 36 -86.5 56t-227.5 22h-195v425h706v-180h-505v-57z" />
<glyph unicode="6" horiz-adv-x="955" d="M484 484q190 0 310.5 -61t120.5 -174q0 -70 -33 -122t-92.5 -82.5t-136 -45t-169.5 -14.5q-231 0 -337.5 86t-106.5 275q0 175 116 282t334 107q272 0 407 -95l-41 -183q-124 93 -372 93q-89 0 -159.5 -35t-68.5 -84q41 27 106.5 40t121.5 13zM484 175q97 0 161.5 17 t64.5 44t-64 42.5t-162 15.5q-166 0 -229 -57q29 -28 92.5 -45t136.5 -17z" />
<glyph unicode="7" horiz-adv-x="855" d="M30 720h790v-130q-24 -18 -65 -45.5t-68.5 -46.5t-65 -50t-63.5 -59t-53.5 -69.5t-44 -86.5t-27 -104.5t-10.5 -128.5h-205q0 192 78 329t205 211h-471v180z" />
<glyph unicode="8" horiz-adv-x="930" d="M465 -15q-125 0 -219.5 23t-152.5 75t-58 127q0 61 27 104t78 60q-74 36 -74 130q0 231 399 231t399 -231q0 -94 -74 -130q51 -17 78 -60t27 -104q0 -75 -58 -127t-152.5 -75t-219.5 -23zM465 455q93 0 148.5 13.5t55.5 35.5q0 23 -56 37t-148 14t-148 -14t-56 -37 q0 -22 55.5 -35.5t148.5 -13.5zM465 165q98 0 161.5 15.5t63.5 39.5q0 23 -63.5 38t-161.5 15t-161.5 -15t-63.5 -38q0 -24 63.5 -39.5t161.5 -15.5z" />
<glyph unicode="9" horiz-adv-x="955" d="M471 735q231 0 337.5 -86t106.5 -275q0 -177 -113 -283t-337 -106q-109 0 -229.5 25t-194.5 77l41 183q65 -49 174 -74.5t215 -25.5q96 0 164 35t64 86q-42 -28 -107 -41.5t-121 -13.5q-190 0 -310.5 61t-120.5 174q0 70 33 122t92.5 82.5t136 45t169.5 14.5zM245 484 q0 -27 64 -42.5t162 -15.5q166 0 229 57q-29 28 -92.5 45t-136.5 17q-97 0 -161.5 -17t-64.5 -44z" />
<glyph unicode=":" horiz-adv-x="305" d="M153 280q-41 0 -69.5 29t-28.5 69t29 68.5t69 28.5t68.5 -28.5t28.5 -68.5t-28.5 -69t-68.5 -29zM153 0q-41 0 -69.5 29t-28.5 69t29 68.5t69 28.5t68.5 -28.5t28.5 -68.5t-28.5 -69t-68.5 -29z" />
<glyph unicode=";" horiz-adv-x="339" d="M187 280q-41 0 -69.5 29t-28.5 69t29 68.5t69 28.5t68.5 -28.5t28.5 -68.5t-28.5 -69t-68.5 -29zM55 -127l44 254h175l-159 -254h-60z" />
<glyph unicode="&#x3c;" horiz-adv-x="597" d="M512 -15l-462 273v49l462 278v-70l-385 -232l385 -229v-69z" />
<glyph unicode="=" horiz-adv-x="876" d="M140 385v60h596v-60h-596zM140 220v60h596v-60h-596z" />
<glyph unicode="&#x3e;" horiz-adv-x="597" d="M85 -15v69l385 229l-385 232v70l462 -278v-49z" />
<glyph unicode="?" horiz-adv-x="818" d="M326 213v11q0 53 18.5 94.5t45.5 65.5t58 44t56.5 32t40 28t9.5 34q-10 34 -85 34q-83 0 -198.5 -34.5t-175.5 -78.5l-40 180q74 52 184.5 81.5t220.5 30.5q249 0 293 -144q18 -56 4.5 -99.5t-45 -69.5t-73 -50.5t-79 -42.5t-63.5 -45t-26 -59v-12q-27 19 -70 19t-75 -19 zM400 0q-40 0 -69 29t-29 69t29 68.5t69 28.5t68.5 -28.5t28.5 -68.5t-28.5 -69t-68.5 -29z" />
<glyph unicode="@" horiz-adv-x="1097" d="M549 732q202 0 345 -128.5t143 -309.5q0 -70 -25 -139l-36 21l1 4q19 53 19 114q0 109 -60 201.5t-163 146t-224 53.5q-185 0 -316.5 -117.5t-131.5 -283.5t131.5 -284t316.5 -118q85 0 163 28q41 16 63.5 42.5t23.5 52.5t-13.5 50t-43.5 36q-62 -74 -235 -74 q-112 0 -189 42.5t-77 132.5q0 47 23.5 82.5t64.5 55t90 28.5t107 8q138 -2 189 -51q2 49 -44.5 75t-144.5 26q-134 0 -226 -51l-50 132q53 31 129 47.5t147 16.5q170 0 270.5 -54.5t100.5 -174.5v-192q0 -40 -4 -67.5t-19 -67t-52.5 -72.5t-96.5 -58q-83 -30 -176 -30 q-133 0 -245.5 58.5t-178 160t-65.5 220.5q0 181 143 309.5t346 128.5zM423 202q0 -38 136 -38q117 0 156 38q-36 38 -154 38q-138 0 -138 -38z" />
<glyph unicode="A" horiz-adv-x="1076" d="M835 0l-103 181h-388l-103 -181h-226l412 720h222l412 -720h-226zM440 351h196l-98 173z" />
<glyph unicode="B" horiz-adv-x="911" d="M786 359q42 -19 66 -61t24 -84t-10.5 -75.5t-38.5 -67t-87.5 -52.5t-147.5 -19h-542v720h516q145 0 219 -59.5t74 -160.5q0 -35 -18.5 -75.5t-54.5 -65.5zM250 540v-97h244h25h42t32.5 1.5t27.5 4.5t17.5 8t12.5 13.5t3 20.5q0 34 -31 41.5t-117 7.5h-12h-244zM511 180 h21h44t34 1.5t28 4.5t17.5 8.5t12.5 14t3 20.5q0 34 -30.5 41.5t-117.5 7.5h-12h-261v-98h261z" />
<glyph unicode="C" horiz-adv-x="907" d="M506 -15q-209 0 -332.5 101.5t-123.5 272.5q0 170 125.5 272.5t330.5 102.5q92 0 201.5 -27t169.5 -79l-63 -175q-48 39 -130 65t-157 26q-116 0 -194 -47.5t-78 -136.5q0 -88 76 -136.5t188 -48.5q71 0 159.5 26t137.5 60l61 -170q-60 -52 -169.5 -79t-201.5 -27z" />
<glyph unicode="D" horiz-adv-x="946" d="M465 720q213 0 329 -94.5t117 -265.5q-1 -171 -117 -265.5t-329 -94.5h-415v720h415zM447 180q120 0 189.5 44t69.5 136t-69.5 136t-189.5 44h-197v-360h197z" />
<glyph unicode="E" horiz-adv-x="854" d="M50 0v720h754v-180h-554v-95h554v-170h-554v-95h554v-180h-754z" />
<glyph unicode="F" horiz-adv-x="859" d="M50 0v720h759v-180h-559v-95h559v-170h-559v-275h-200z" />
<glyph unicode="G" horiz-adv-x="990" d="M535 431h395v-376q-173 -70 -405 -70q-238 0 -356.5 100.5t-118.5 276.5q0 171 133 271.5t342 100.5q243 0 386 -87l-64 -178q-135 73 -307 75q-72 1 -134.5 -17t-106.5 -60.5t-44 -103.5q0 -183 285 -182q129 0 210 19v62h-215v169z" />
<glyph unicode="H" horiz-adv-x="955" d="M50 0v720h200v-270h455v270h200v-720h-200v270h-455v-270h-200z" />
<glyph unicode="I" horiz-adv-x="840" d="M790 540h-270v-360h270v-180h-740v180h270v360h-270v180h740v-180z" />
<glyph unicode="J" horiz-adv-x="793" d="M416 -15q-98 0 -195.5 29.5t-170.5 82.5l20 184q47 -32 155.5 -69t193.5 -37q77 0 108 23t31 88v254h-493v180h693v-485q0 -115 -100.5 -182.5t-241.5 -67.5z" />
<glyph unicode="K" horiz-adv-x="987" d="M952 0h-243l-261 373l-198 -148v-225h-200v720h200v-271l364 271h300l-308 -229z" />
<glyph unicode="L" horiz-adv-x="830" d="M50 0v720h200v-540h545v-180h-745z" />
<glyph unicode="M" horiz-adv-x="1103" d="M784 720h269v-720h-200v431l-186 -431h-231l-186 429v-429h-200v720h269l233 -519z" />
<glyph unicode="N" horiz-adv-x="951" d="M701 720h200v-720h-160l-491 427v-427h-200v720h160l491 -427v427z" />
<glyph unicode="O" horiz-adv-x="989" d="M495 -15q-197 0 -321 102.5t-124 274.5q0 168 125 270t320 102q196 0 320 -102t124 -270q0 -172 -123.5 -274.5t-320.5 -102.5zM495 175q104 0 171.5 50.5t67.5 135.5q0 83 -68 133t-172 50q-103 0 -171 -50t-68 -133q0 -85 68 -135.5t172 -50.5z" />
<glyph unicode="P" horiz-adv-x="875" d="M50 0v720h497q143 0 218 -68t75 -171q0 -35 -4 -62.5t-21.5 -62.5t-46.5 -58.5t-85 -39.5t-132 -16h-301v-242h-200zM250 422h228q94 0 125.5 10t31.5 50q0 39 -31.5 48.5t-125.5 9.5h-228v-118z" />
<glyph unicode="Q" horiz-adv-x="989" d="M939 362q0 -170 -122 -273l57 -63l-44 -41l-63 68q-113 -68 -272 -68q-197 0 -321 102.5t-124 274.5q0 168 125 270t320 102q196 0 320 -102t124 -270zM495 175q76 0 135 28l-86 94l44 41l92 -101q54 49 54 124q0 83 -68 133t-172 50q-103 0 -171 -50t-68 -133 q0 -85 68 -135.5t172 -50.5z" />
<glyph unicode="R" horiz-adv-x="878" d="M50 0v720h501q142 0 215 -67.5t73 -169.5q0 -92 -61.5 -157t-182.5 -76q88 -21 170 -132l88 -118h-244q-74 104 -95 128q-57 66 -119 93t-145 27v-248h-200zM250 424h227q90 0 123.5 10.5t33.5 48.5q0 37 -33.5 47t-123.5 10h-227v-116z" />
<glyph unicode="S" horiz-adv-x="940" d="M471 -15q-117 0 -230 31t-186 85l41 180q69 -51 184.5 -81t249.5 -30q71 0 110.5 13t39.5 36q0 47 -150 47q-83 0 -144.5 4.5t-124.5 19t-102.5 40t-64.5 69t-25 104.5q0 115 102 173.5t276 58.5q126 0 240 -28.5t186 -78.5l-40 -180q-69 48 -188.5 75t-232.5 27 q-139 0 -139 -47q0 -45 141 -47q59 -1 98.5 -2t93.5 -6.5t89.5 -15t74.5 -27t62 -42t38 -61t15 -83.5q0 -119 -111 -176.5t-303 -57.5z" />
<glyph unicode="T" horiz-adv-x="969" d="M384 0v540h-334v180h869v-180h-335v-540h-200z" />
<glyph unicode="U" horiz-adv-x="934" d="M467 -15q-199 0 -308 98.5t-109 253.5v383h200v-342q0 -106 47 -154.5t170 -48.5t170 48.5t47 154.5v342h200v-383q0 -155 -109 -253.5t-308 -98.5z" />
<glyph unicode="V" horiz-adv-x="998" d="M755 720h218l-347 -720h-254l-347 720h218l256 -531z" />
<glyph unicode="W" horiz-adv-x="1417" d="M320 0l-295 720h213l185 -455l186 455h199l186 -455l185 455h213l-295 -720h-207l-181 442l-182 -442h-207z" />
<glyph unicode="X" horiz-adv-x="1045" d="M1043 0h-274l-237 246l-238 -246h-274l375 388l-320 332h272l185 -191l184 191h272l-320 -332z" />
<glyph unicode="Y" horiz-adv-x="949" d="M374 0v236l-354 484h238l217 -301l216 301h238l-354 -484v-236h-201z" />
<glyph unicode="Z" horiz-adv-x="947" d="M897 720v-154l-513 -386h512v-180h-846v154l514 386h-513v180h846z" />
<glyph unicode="[" horiz-adv-x="291" d="M70 -50v830h171v-60h-111v-720h111v-50h-171z" />
<glyph unicode="\" horiz-adv-x="514" d="M409 -177l-359 887l54 26l360 -890z" />
<glyph unicode="]" horiz-adv-x="291" d="M50 -50v50h111v720h-111v60h171v-830h-171z" />
<glyph unicode="^" horiz-adv-x="529" d="M494 408h-71l-158 251l-159 -251h-71l206 327h47z" />
<glyph unicode="_" horiz-adv-x="600" d="M0 -187v60h600v-60h-600z" />
<glyph unicode="`" horiz-adv-x="432" d="M268 545l-168 175h175l37 -175h-44z" />
<glyph unicode="a" d="M364 585q114 0 203.5 -25t147 -83.5t57.5 -144.5v-332h-147l-28 63q-74 -78 -254 -78q-74 0 -138 19t-109.5 64t-45.5 110t47.5 110t116 64t150.5 18q149 -2 208 -57q2 51 -51.5 81.5t-156.5 30.5q-151 0 -249 -56l-56 145q56 33 143.5 52t161.5 19zM250 178 q0 -22 46 -32t103 -10q130 0 173 42q-40 42 -169 42q-70 0 -111.5 -11t-41.5 -31z" />
<glyph unicode="b" horiz-adv-x="813" d="M467 585q55 0 109 -19t99.5 -54.5t74 -94t28.5 -129.5q0 -74 -28 -133.5t-73.5 -95.5t-99.5 -55t-109 -19q-79 0 -142.5 33.5t-94.5 96.5l-34 -115h-147v720h200v-254q31 56 89 87.5t128 31.5zM408 147q71 0 120.5 36.5t49.5 104.5q0 64 -50.5 100t-119.5 36 q-67 -2 -112.5 -38t-45.5 -98q0 -66 44.5 -103.5t113.5 -37.5z" />
<glyph unicode="c" horiz-adv-x="750" d="M401 -15q-174 0 -272.5 81t-98.5 219q0 136 102.5 218t272.5 82q85 0 173.5 -21t136.5 -64l-59 -166q-44 32 -109 53.5t-126 21.5q-83 0 -137 -32.5t-54 -91.5q0 -57 57 -90t143 -33q60 0 123 20.5t103 48.5l59 -161q-48 -43 -138 -64t-176 -21z" />
<glyph unicode="d" horiz-adv-x="813" d="M563 720h200v-720h-147l-34 115q-31 -63 -94.5 -96.5t-142.5 -33.5q-55 0 -109 19t-99.5 55t-73.5 95.5t-28 133.5q0 71 28.5 129.5t74 94t99.5 54.5t109 19q70 0 128 -31.5t89 -87.5v254zM405 147q69 0 113.5 37.5t44.5 103.5q0 62 -45.5 98t-112.5 38q-69 0 -119.5 -36 t-50.5 -100q0 -68 49.5 -104.5t120.5 -36.5z" />
<glyph unicode="e" d="M411 145q161 0 252 43l68 -136q-112 -67 -321 -67q-71 0 -136 16.5t-121 50t-89 92t-34 134.5q-1 155 98.5 231t278.5 76q365 0 365 -367h-538q32 -73 177 -73zM405 425q-84 0 -125.5 -16t-54.5 -51h351q-16 34 -54.5 50.5t-116.5 16.5z" />
<glyph unicode="f" horiz-adv-x="655" d="M432 617q-64 0 -71 -47h138v-140h-139v-430h-200v430h-125l1 140h125q4 62 27 107t58 69t72.5 35t79.5 11q73 0 132 -21.5t90 -45.5l-56 -152q-64 44 -132 44z" />
<glyph unicode="g" horiz-adv-x="835" d="M638 570h147v-405q0 -80 -31 -141t-85.5 -96.5t-123 -53t-149.5 -17.5q-233 2 -365 87l51 148q47 -30 125 -52.5t163 -22.5q112 0 163.5 31t51.5 105v15q-78 -83 -235 -83q-44 0 -88 9.5t-86 30t-74.5 49t-52 70.5t-19.5 91q0 68 31.5 119t81.5 78t102 40t104 13 q188 0 251 -104zM399 252q65 0 118.5 24t67.5 59q-14 35 -67.5 59t-118.5 24q-80 0 -124.5 -24.5t-44.5 -58.5t44.5 -58.5t124.5 -24.5z" />
<glyph unicode="h" horiz-adv-x="799" d="M457 585q130 0 211 -73t81 -223v-289h-200v285q0 44 -11.5 74t-33 43t-41.5 17.5t-46 4.5q-48 0 -94 -20.5t-73 -64.5v-339h-200v720h200v-252q32 51 88 84t119 33z" />
<glyph unicode="i" horiz-adv-x="327" d="M160 600q-47 0 -78.5 33t-31.5 81q0 47 33.5 80t80.5 33q46 0 79.5 -33.5t33.5 -79.5q0 -47 -35 -80.5t-82 -33.5zM64 0v570q45 -22 100 -22t100 22v-570h-200z" />
<glyph unicode="j" horiz-adv-x="568" d="M401 600q-47 0 -78.5 33t-31.5 81q0 47 33.5 80t80.5 33t80 -33.5t33 -79.5q0 -47 -35 -80.5t-82 -33.5zM190 -142q-57 0 -109.5 19t-80.5 40l55 148q20 -13 55.5 -24t63.5 -11q21 0 41 4.5t41.5 15.5t35 34.5t13.5 57.5v428q45 -22 100 -22t100 22v-419 q0 -100 -45.5 -168t-114.5 -96.5t-155 -28.5z" />
<glyph unicode="k" horiz-adv-x="778" d="M512 0l-173 209h-89v-209h-200v720h200v-343l213 193h273l-257 -234l279 -336h-246z" />
<glyph unicode="l" horiz-adv-x="300" d="M50 0v720h200v-720h-200z" />
<glyph unicode="m" horiz-adv-x="1220" d="M50 0v570h147l36 -123q30 60 82.5 99t121.5 39q191 0 249 -138q27 60 84.5 99t126.5 39q273 0 273 -277v-308h-200v308q0 69 -33 92.5t-84 23.5q-36 0 -77 -20.5t-66 -59.5v-344h-200v308q0 116 -120 116q-34 0 -74.5 -21t-65.5 -59v-344h-200z" />
<glyph unicode="n" horiz-adv-x="809" d="M457 585q132 0 217 -73.5t85 -222.5v-289h-200v285q0 139 -142 139q-48 0 -94 -20.5t-73 -64.5v-339h-200v570h147l38 -127q27 60 89 101t133 41z" />
<glyph unicode="o" horiz-adv-x="786" d="M393 -15q-163 0 -263 82.5t-100 220.5q0 135 100 215t263 83q163 -3 263 -83t100 -215q0 -138 -100 -220.5t-263 -82.5zM393 150q78 0 120.5 35t42.5 103q0 64 -42.5 97.5t-120.5 35.5q-78 -2 -120.5 -35.5t-42.5 -97.5q0 -68 42.5 -103t120.5 -35z" />
<glyph unicode="p" horiz-adv-x="808" d="M468 585q55 0 109 -19t99.5 -55t73.5 -95.5t28 -133.5q0 -71 -28.5 -129.5t-74 -94t-99.5 -54.5t-109 -19q-70 0 -128 31.5t-89 87.5v-231h-200v697h147l34 -115q31 63 94.5 96.5t142.5 33.5zM408 146q69 0 119.5 36t50.5 100q0 68 -49.5 104.5t-120.5 36.5 q-69 0 -113.5 -37.5t-44.5 -103.5q0 -62 45.5 -98t112.5 -38z" />
<glyph unicode="q" horiz-adv-x="808" d="M611 570h147v-697h-200v231q-31 -56 -89 -87.5t-128 -31.5q-55 0 -109 19t-99.5 54.5t-74 94t-28.5 129.5q0 74 28 133.5t73.5 95.5t99.5 55t109 19q79 0 142.5 -33.5t94.5 -96.5zM400 146q67 2 112.5 38t45.5 98q0 66 -44.5 103.5t-113.5 37.5q-71 0 -120.5 -36.5 t-49.5 -104.5q0 -64 50.5 -100t119.5 -36z" />
<glyph unicode="r" horiz-adv-x="611" d="M422 585q43 0 92 -14.5t77 -43.5l-69 -143q-58 37 -127 37q-99 0 -145 -82v-340h-200v571h147l33 -111q53 126 192 126z" />
<glyph unicode="s" horiz-adv-x="783" d="M418 -15q-106 0 -215 22.5t-158 62.5l27 162q48 -39 147 -63t209 -24q109 0 109 30q0 19 -26.5 24.5t-80.5 5.5q-65 0 -114 4t-99.5 15.5t-82.5 32t-52.5 55.5t-20.5 83q0 65 44 109t110 62.5t149 18.5q218 0 358 -68l-40 -157q-57 32 -147.5 49.5t-177.5 17.5 q-96 0 -96 -30q0 -16 19.5 -22t65.5 -6q202 0 297 -42t95 -152q0 -190 -320 -190z" />
<glyph unicode="t" horiz-adv-x="658" d="M406 -15q-45 0 -83 11.5t-71 37.5t-51.5 75t-18.5 117v204h-147v140h96q22 0 36.5 14.5t14.5 36.5v99h199v-150h206v-140h-207v-153q0 -66 21.5 -90.5t61.5 -24.5q28 0 68 11.5t60 25.5l47 -151q-27 -21 -96.5 -42t-135.5 -21z" />
<glyph unicode="u" horiz-adv-x="809" d="M559 570h200v-570h-147l-37 126q-27 -61 -87 -101t-136 -40q-132 0 -217 73.5t-85 222.5v289h200v-285q0 -139 142 -139q48 0 94 20.5t73 64.5v339z" />
<glyph unicode="v" horiz-adv-x="880" d="M645 570h220l-332 -570h-186l-332 570h220l205 -354z" />
<glyph unicode="w" horiz-adv-x="1283" d="M1061 570h207l-252 -570h-248l-126 285l-127 -285h-248l-252 570h207l169 -393l169 393h163l169 -393z" />
<glyph unicode="x" horiz-adv-x="829" d="M814 0h-243l-156 173l-157 -173h-243l277 308l-237 262h245l115 -127l114 127h245l-237 -262z" />
<glyph unicode="y" horiz-adv-x="882" d="M646 570h221l-406 -697h-219l89 154l-316 543h221l205 -354z" />
<glyph unicode="z" horiz-adv-x="776" d="M356 165h370v-165h-676v146l367 259h-362v165h669v-145z" />
<glyph unicode="{" horiz-adv-x="528" d="M478 -72q-68 0 -116.5 10.5t-75.5 26.5t-42.5 42t-20 51t-4.5 60q0 197 -183 197h-16v78h16q183 0 183 197q0 35 4.5 60t20 51t42.5 42t75.5 26.5t116.5 10.5v-60q-63 0 -104.5 -8.5t-61 -25.5t-26 -33.5t-6.5 -40.5v-52q0 -85 -46.5 -140.5t-119.5 -65.5 q73 -10 119.5 -65.5t46.5 -140.5v-52q0 -50 40.5 -79t157.5 -29v-60z" />
<glyph unicode="|" horiz-adv-x="300" d="M120 -190v990h60v-990h-60z" />
<glyph unicode="}" horiz-adv-x="528" d="M50 -72v60q117 0 157.5 29t40.5 79v52q0 85 46.5 140.5t119.5 65.5q-73 10 -119.5 65.5t-46.5 140.5v52q0 24 -6.5 40.5t-26 33.5t-61 25.5t-104.5 8.5v60q68 0 116.5 -10.5t75.5 -26.5t42.5 -42t20 -51t4.5 -60q0 -197 183 -197h16v-78h-16q-183 0 -183 -197 q0 -35 -4.5 -60t-20 -51t-42.5 -42t-75.5 -26.5t-116.5 -10.5z" />
<glyph unicode="~" horiz-adv-x="752" d="M50 261v24q2 64 50 108t122 44q52 0 96 -18t70 -39.5t63.5 -40t78.5 -18.5q51 0 80.5 25.5t31.5 66.5v24h60v-24q-2 -64 -50 -108t-122 -44q-46 0 -87 18.5t-67.5 40t-67.5 39.5t-86 18q-51 0 -80.5 -25.5t-31.5 -66.5v-24h-60z" />
<glyph unicode="&#xa1;" horiz-adv-x="355" d="M177 334q-40 0 -69 28.5t-29 68.5q0 41 28.5 69.5t69.5 28.5q40 0 68.5 -29t28.5 -69t-28.5 -68.5t-68.5 -28.5zM75 -191l30 504q35 -18 74 -18t71 18l30 -504h-205z" />
<glyph unicode="&#xa2;" horiz-adv-x="750" d="M656 231l59 -161q-42 -37 -116.5 -58t-153.5 -26v-77h-60v76q-167 4 -261 84.5t-94 215.5q0 132 96.5 213.5t258.5 86.5v74h60v-75q189 -12 270 -84l-59 -166q-91 66 -211 74v-246q57 3 115.5 22.5t95.5 46.5zM230 285q0 -49 43 -80.5t112 -39.5v242q-70 -7 -112.5 -38.5 t-42.5 -83.5z" />
<glyph unicode="&#xa3;" d="M685 226l82 -172q-77 -44 -151.5 -60t-129 -7t-109.5 22.5t-97.5 26t-89 5t-87.5 -40.5l-41 55q50 36 79.5 75t36.5 76.5t4.5 67t-13.5 64.5h-119v60h99q-5 13 -5 16q-37 141 48 230.5t273 89.5q196 0 287 -94l-63 -175q-75 78 -207 78q-79 0 -111 -30.5t-14 -97.5 q1 -3 2 -8.5t2 -8.5h212v-60h-204q3 -103 -87 -169q36 7 64.5 2t66.5 -8.5t74 -3.5t88.5 16.5t109.5 50.5z" />
<glyph unicode="&#xa4;" horiz-adv-x="595" d="M510 132l-43 -43l-48 48q-54 -40 -122 -40q-67 0 -121 40l-48 -48l-43 43l48 48q-39 55 -39 120q0 68 40 122l-48 48l43 43l49 -49q51 39 119 39q65 0 120 -39l49 49l43 -43l-49 -49q40 -54 40 -121q0 -68 -39 -119zM154 300q0 -58 42 -100.5t101 -42.5t101 42.5 t42 100.5t-42 100.5t-101 42.5t-101 -42.5t-42 -100.5z" />
<glyph unicode="&#xa5;" horiz-adv-x="949" d="M929 720l-184 -251h112v-60h-155l-35 -47h190v-60h-234l-48 -66v-236h-201v236l-48 66h-255v60h211l-35 47h-176v60h133l-184 251h238l217 -301l216 301h238z" />
<glyph unicode="&#xa6;" horiz-adv-x="300" d="M120 426v374h60v-374h-60zM120 -190v375h60v-375h-60z" />
<glyph unicode="&#xa7;" horiz-adv-x="939" d="M464 -210q-117 0 -226.5 26.5t-182.5 75.5l20 168q67 -42 188.5 -70t230.5 -28q79 0 128 13.5t49 35.5q0 25 -42 31t-146 5h-46q-108 0 -184 15.5t-116.5 44.5t-57.5 63.5t-17 79.5q0 80 58 135q-50 46 -50 125q0 78 54.5 130t136.5 73.5t187 21.5q120 0 237 -28.5 t189 -74.5l-41 -172q-74 49 -188.5 80t-214.5 31q-156 0 -156 -42q0 -15 17 -25t53 -14.5t63.5 -6t75.5 -2.5q43 -1 63 -1.5t61 -3t62 -6t55.5 -11t53 -17.5t42 -26t35.5 -36.5t20.5 -48t8.5 -61.5q0 -73 -59 -124q51 -49 51 -135q0 -72 -59.5 -123.5t-150.5 -74.5t-202 -23 zM525 221q154 0 154 43q0 29 -50 36t-184 7q-109 0 -144 -7.5t-35 -29.5q0 -29 42.5 -37.5t132.5 -10.5z" />
<glyph unicode="&#xa8;" horiz-adv-x="547" d="M132 600q-34 -1 -58 23t-24 58q0 33 24 57t58 24q33 0 57 -24t24 -57t-24 -56.5t-57 -24.5zM416 600q-34 -1 -58 23t-24 58q0 33 24 57t58 24q33 0 57 -24t24 -57t-24 -56.5t-57 -24.5z" />
<glyph unicode="&#xa9;" horiz-adv-x="905" d="M453 -2q-167 0 -285 105.5t-118 255.5t118 255.5t285 105.5q166 0 284 -105.5t118 -255.5t-118 -255.5t-284 -105.5zM453 36q149 0 255 94.5t106 228.5t-106 228.5t-255 94.5q-150 0 -256 -94.5t-106 -228.5t106 -228.5t256 -94.5zM458 140q-125 0 -199 60.5t-74 162.5 t75.5 163t197.5 61q55 0 120.5 -16t101.5 -47l-38 -104q-28 23 -78.5 38t-96.5 16q-68 1 -113.5 -27.5t-45.5 -82.5q0 -52 43.5 -81t109.5 -29q44 0 99 15t83 35l37 -101q-36 -31 -102 -47t-120 -16z" />
<glyph unicode="&#xaa;" horiz-adv-x="499" d="M223 735q99 0 162.5 -35.5t63.5 -105.5v-184h-81l-15 34q-41 -44 -141 -44q-65 0 -113.5 27.5t-48.5 80.5q0 54 52 82t121 26q85 -4 115 -32q2 29 -27.5 45.5t-87.5 16.5q-84 0 -136 -31l-32 81q69 39 168 39zM162 508q0 -23 81 -23q72 0 95 23q-20 23 -93 23 q-83 0 -83 -23z" />
<glyph unicode="&#xab;" horiz-adv-x="649" d="M288 72l-238 218l238 220h61l-118 -219l118 -219h-61zM538 72l-238 218l238 220h61l-118 -219l118 -219h-61z" />
<glyph unicode="&#xac;" horiz-adv-x="695" d="M585 205v225h-535v60h595v-285h-60z" />
<glyph unicode="&#xae;" horiz-adv-x="905" d="M453 720q166 0 284 -105.5t118 -255.5t-118 -255.5t-284 -105.5q-167 0 -285 105.5t-118 255.5t118 255.5t285 105.5zM453 36q149 0 255 94.5t106 228.5t-106 228.5t-255 94.5q-150 0 -256 -94.5t-106 -228.5t106 -228.5t256 -94.5zM546 299q50 -9 103 -80l56 -74h-147 q-45 63 -59 80q-34 40 -70.5 56.5t-86.5 16.5v-153h-120v432h301q86 0 127.5 -39t42.5 -101q1 -56 -36 -94t-111 -44zM342 469v-63h136q72 0 85 9q10 8 10 22q0 12 -4.5 18.5t-19 9.5t-27.5 3.5t-44 0.5h-136z" />
<glyph unicode="&#xaf;" horiz-adv-x="531" d="M25 660v60h481v-60h-481z" />
<glyph unicode="&#xb0;" horiz-adv-x="590" d="M295 385q-73 0 -124 51t-51 124t51 124t124 51t124 -51t51 -124t-51 -124t-124 -51zM295 445q47 0 81 34t34 81t-34 81t-81 34t-81 -34t-34 -81t34 -81t81 -34z" />
<glyph unicode="&#xb1;" horiz-adv-x="650" d="M355 440h245v-60h-245v-231h-61v231h-244v60h244v199h61v-199zM50 0v60h550v-60h-550z" />
<glyph unicode="&#xb2;" horiz-adv-x="481" d="M61 394l-1 66v1q0 121 181 134q47 4 70 10t21 22q-2 19 -50.5 20.5t-109 -14t-92.5 -40.5l-25 83q31 25 91 42t119 17q157 0 165 -99q5 -53 -34.5 -86.5t-136.5 -38.5q-55 -3 -75.5 -10t-23.5 -23h260v-84h-359z" />
<glyph unicode="&#xb3;" horiz-adv-x="464" d="M394 561q30 -24 30 -60q0 -59 -54 -86.5t-134 -27.5q-55 0 -106.5 12t-79.5 32l20 82q59 -42 167 -42q39 0 64 8t25 22q0 12 -18 15.5t-57 3.5h-45h-25v83h25h70q50 0 50 16q0 30 -89 30q-110 0 -167 -41l-20 82q28 20 79.5 32t106.5 12q80 0 134 -28t54 -87 q0 -36 -30 -58z" />
<glyph unicode="&#xb4;" horiz-adv-x="432" d="M120 545l37 175h175l-168 -175h-44z" />
<glyph unicode="&#xb6;" horiz-adv-x="658" d="M368 720v-1q10 1 60 1v-847h-60v309q-59 0 -113 15t-101.5 45t-75.5 84t-28 125t28 125t75.5 84t101.5 45t113 15zM548 720h60v-847h-60v847z" />
<glyph unicode="&#xb7;" horiz-adv-x="355" d="M178 200q-40 0 -69 29t-29 69t29 68.5t69 28.5t68.5 -28.5t28.5 -68.5t-28.5 -69t-68.5 -29z" />
<glyph unicode="&#xb8;" horiz-adv-x="312" d="M50 -187l168 175h44l-37 -175h-175z" />
<glyph unicode="&#xb9;" horiz-adv-x="439" d="M266 470h118v-83h-329v83h118v127l-117 -82v98l158 107h52v-250z" />
<glyph unicode="&#xbb;" horiz-adv-x="649" d="M50 72l118 219l-118 219h61l238 -220l-238 -218h-61zM300 72l118 219l-118 219h61l238 -220l-238 -218h-61z" />
<glyph unicode="&#xbc;" horiz-adv-x="1289" d="M913 771l47 -37l-524 -748l-49 34zM504 380v-114h-449v114h161v173l-159 -112v133l215 146h70v-340h162zM1100 222h139v-114h-139v-107h-126v107h-311v114q72 20 145.5 88.5t124.5 143.5l167 1v-233zM878 222h96v102q-35 -60 -96 -102z" />
<glyph unicode="&#xbd;" horiz-adv-x="1320" d="M913 771l47 -37l-524 -748l-49 34zM504 380v-114h-449v114h161v173l-159 -112v133l215 146h70v-340h162zM1038 158q-75 -4 -102.5 -13.5t-30.5 -31.5h354v-113h-489l-1 90q0 164 245 181q62 5 93 13.5t29 29.5q-2 26 -67.5 28t-147 -19t-124.5 -55l-34 112 q42 34 122.5 57t160.5 23q211 0 223 -134q7 -71 -46 -115.5t-185 -52.5z" />
<glyph unicode="&#xbe;" horiz-adv-x="1305" d="M929 771l47 -37l-524 -748l-49 34zM558 418q0 -80 -73.5 -118.5t-182.5 -38.5q-74 0 -144 17t-108 43l27 112q37 -27 100.5 -41.5t125.5 -14.5q53 0 88 10.5t35 30.5q0 16 -25 20.5t-78 4.5h-61h-34v113h34h95q38 0 53.5 4.5t15.5 17.5q0 20 -35 30.5t-88 10.5 q-62 0 -125.5 -15t-100.5 -41l-27 111q38 26 108 43t144 17q70 0 125 -14.5t93 -51t38 -90.5q0 -27 -7 -44t-33 -36q40 -32 40 -80zM1116 222h139v-114h-139v-107h-126v107h-311v114q72 20 145.5 88.5t124.5 143.5l167 1v-233zM894 222h96v102q-35 -60 -96 -102z" />
<glyph unicode="&#xbf;" horiz-adv-x="819" d="M419 390q-40 0 -68.5 28.5t-28.5 68.5t28.5 69t68.5 29q41 0 69.5 -28.5t28.5 -69.5q0 -40 -29 -68.5t-69 -28.5zM764 -38q-54 -38 -127.5 -66.5t-152.5 -43.5t-155.5 -10.5t-137.5 27.5t-98.5 76t-37.5 130q0 51 30 90.5t73.5 64t86.5 45t73 45.5t30 54q38 -20 71 -20 t74 20q0 -62 -17 -105.5t-42 -64.5t-55 -37.5t-55 -25t-42 -25t-17 -41.5q0 -44 81.5 -46.5t191 32.5t185.5 89z" />
<glyph unicode="&#xc0;" horiz-adv-x="1076" d="M567 745h-44l-168 175h175zM835 0l-103 181h-388l-103 -181h-226l412 720h222l412 -720h-226zM440 351h196l-98 173z" />
<glyph unicode="&#xc1;" horiz-adv-x="1076" d="M721 920l-168 -175h-44l37 175h175zM835 0l-103 181h-388l-103 -181h-226l412 720h222l412 -720h-226zM440 351h196l-98 173z" />
<glyph unicode="&#xc2;" horiz-adv-x="1076" d="M540 863l-46 -118h-144l168 175h44l168 -175h-144zM835 0l-103 181h-388l-103 -181h-226l412 720h222l412 -720h-226zM440 351h196l-98 173z" />
<glyph unicode="&#xc3;" horiz-adv-x="1076" d="M393 762v-17h-58v35q0 37 36.5 63t79.5 26q48 0 94.5 -32.5t77.5 -32.5q26 0 42 13t16 35v17h58v-35q0 -37 -36.5 -63t-79.5 -26q-40 0 -88 32.5t-84 32.5q-26 0 -42 -13t-16 -35zM835 0l-103 181h-388l-103 -181h-226l412 720h222l412 -720h-226zM440 351h196l-98 173z " />
<glyph unicode="&#xc4;" horiz-adv-x="1076" d="M835 0l-103 181h-388l-103 -181h-226l412 720h222l412 -720h-226zM245 558q-34 -1 -58 23t-24 58q0 33 24 57t58 24q33 0 57 -24t24 -57t-24 -56.5t-57 -24.5zM832 558q-34 -1 -58 23t-24 58q0 33 24 57t58 24q33 0 57 -24t24 -57t-24 -56.5t-57 -24.5zM440 351h196 l-98 173z" />
<glyph unicode="&#xc5;" horiz-adv-x="1076" d="M539 745q-41 0 -70 29t-29 70t29 70t70 29t70 -29t29 -70t-29 -70t-70 -29zM539 903q-24 0 -41.5 -17.5t-17.5 -41.5t17.5 -41.5t41.5 -17.5t41.5 17.5t17.5 41.5t-17.5 41.5t-41.5 17.5zM835 0l-103 181h-388l-103 -181h-226l412 720h222l412 -720h-226zM440 351h196 l-98 173z" />
<glyph unicode="&#xc6;" horiz-adv-x="1404" d="M1354 275h-554v-95h552l1 -180h-753v181h-241l-118 -181h-226l472 720h866v-180h-553v-95h554v-170zM469 351h131v201z" />
<glyph unicode="&#xc7;" horiz-adv-x="907" d="M506 -15q-209 0 -332.5 101.5t-123.5 272.5q0 170 125.5 272.5t330.5 102.5q92 0 201.5 -27t169.5 -79l-63 -175q-48 39 -130 65t-157 26q-116 0 -194 -47.5t-78 -136.5q0 -88 76 -136.5t188 -48.5q71 0 159.5 26t137.5 60l61 -170q-60 -52 -169.5 -79t-201.5 -27z M317 -214l168 175h44l-37 -175h-175z" />
<glyph unicode="&#xc8;" horiz-adv-x="854" d="M443 745l-168 175h175l37 -175h-44zM50 0v720h754v-180h-554v-95h554v-170h-554v-95h554v-180h-754z" />
<glyph unicode="&#xc9;" horiz-adv-x="854" d="M390 745l37 175h175l-168 -175h-44zM50 0v720h754v-180h-554v-95h554v-170h-554v-95h554v-180h-754z" />
<glyph unicode="&#xca;" horiz-adv-x="854" d="M431 863l-46 -118h-144l168 175h44l168 -175h-144zM804 540h-554v-95h554v-170h-554v-95h554v-180h-754v720h754v-180z" />
<glyph unicode="&#xcb;" horiz-adv-x="854" d="M296 745q-34 -1 -58 23t-24 58q0 33 24 57t58 24q33 0 57 -24t24 -57t-24 -56.5t-57 -24.5zM580 745q-34 -1 -58 23t-24 58q0 33 24 57t58 24q33 0 57 -24t24 -57t-24 -56.5t-57 -24.5zM50 0v720h754v-180h-554v-95h554v-170h-554v-95h554v-180h-754z" />
<glyph unicode="&#xcc;" horiz-adv-x="840" d="M439 745h-44l-168 175h175zM790 540h-270v-360h270v-180h-740v180h270v360h-270v180h740v-180z" />
<glyph unicode="&#xcd;" horiz-adv-x="840" d="M608 920l-168 -175h-44l37 175h175zM790 540h-270v-360h270v-180h-740v180h270v360h-270v180h740v-180z" />
<glyph unicode="&#xce;" horiz-adv-x="840" d="M420 863l-46 -118h-144l168 175h44l168 -175h-144zM790 540h-270v-360h270v-180h-740v180h270v360h-270v180h740v-180z" />
<glyph unicode="&#xcf;" horiz-adv-x="840" d="M278 745q-34 -1 -58 23t-24 58q0 33 24 57t58 24q33 0 57 -24t24 -57t-24 -56.5t-57 -24.5zM562 745q-34 -1 -58 23t-24 58q0 33 24 57t58 24q33 0 57 -24t24 -57t-24 -56.5t-57 -24.5zM790 540h-270v-360h270v-180h-740v180h270v360h-270v180h740v-180z" />
<glyph unicode="&#xd0;" horiz-adv-x="1031" d="M550 720q213 0 329 -94.5t117 -265.5q-1 -171 -117 -265.5t-329 -94.5h-425v337h-75v60h75v323h425zM532 180q120 0 189.5 44t69.5 136t-69.5 136t-189.5 44h-207v-144h191v-60h-191v-156h207z" />
<glyph unicode="&#xd1;" horiz-adv-x="951" d="M329 762v-17h-58v35q0 37 36.5 63t79.5 26q48 0 94.5 -32.5t77.5 -32.5q26 0 42 13t16 35v17h58v-35q0 -37 -36.5 -63t-79.5 -26q-40 0 -88 32.5t-84 32.5q-26 0 -42 -13t-16 -35zM701 720h200v-720h-160l-491 427v-427h-200v720h160l491 -427v427z" />
<glyph unicode="&#xd2;" horiz-adv-x="989" d="M474 745l-168 175h175l37 -175h-44zM494 -15q-197 0 -320.5 102.5t-123.5 274.5q0 168 124 270t320 102q195 0 320 -102t125 -270q0 -172 -124 -274.5t-321 -102.5zM494 175q104 0 172 50.5t68 135.5q0 83 -68 133t-171 50q-104 0 -172 -50t-68 -133q0 -85 67.5 -135.5 t171.5 -50.5z" />
<glyph unicode="&#xd3;" horiz-adv-x="989" d="M471 745l37 175h175l-168 -175h-44zM495 -15q-197 0 -321 102.5t-124 274.5q0 168 125 270t320 102q196 0 320 -102t124 -270q0 -172 -123.5 -274.5t-320.5 -102.5zM495 175q104 0 171.5 50.5t67.5 135.5q0 83 -68 133t-172 50q-103 0 -171 -50t-68 -133q0 -85 68 -135.5 t172 -50.5z" />
<glyph unicode="&#xd4;" horiz-adv-x="989" d="M493 863l-46 -118h-144l168 175h44l168 -175h-144zM495 734q196 0 320 -102t124 -270q0 -172 -123.5 -274.5t-320.5 -102.5t-321 102.5t-124 274.5q0 168 125 270t320 102zM495 175q104 0 171.5 50.5t67.5 135.5q0 83 -68 133t-172 50q-103 0 -171 -50t-68 -133 q0 -85 68 -135.5t172 -50.5z" />
<glyph unicode="&#xd5;" horiz-adv-x="989" d="M310 745v35q0 37 36.5 63t79.5 26q48 0 94.5 -32.5t77.5 -32.5q26 0 42 13t16 35v17h58v-35q0 -37 -36.5 -63t-79.5 -26q-40 0 -88 32.5t-84 32.5q-26 0 -42 -13t-16 -35v-17h-58zM494 -15q-197 0 -320.5 102.5t-123.5 274.5q0 168 124 270t320 102q195 0 320 -102 t125 -270q0 -172 -124 -274.5t-321 -102.5zM494 175q104 0 172 50.5t68 135.5q0 83 -68 133t-171 50q-104 0 -172 -50t-68 -133q0 -85 67.5 -135.5t171.5 -50.5z" />
<glyph unicode="&#xd6;" horiz-adv-x="989" d="M354 670q-34 -1 -58 23t-24 58q0 33 24 57t58 24q33 0 57 -24t24 -57t-24 -56.5t-57 -24.5zM638 670q-34 -1 -58 23t-24 58q0 33 24 57t58 24q33 0 57 -24t24 -57t-24 -56.5t-57 -24.5zM495 -15q-99 0 -179 19t-140.5 57.5t-93 102t-32.5 148.5q0 157 122.5 239.5 t322.5 82.5q202 0 323 -82t121 -240q0 -113 -58 -187.5t-155 -107t-231 -32.5zM495 175q56 0 95.5 5t74 19t52 42t17.5 70q0 133 -240 133q-239 0 -239 -133q0 -42 17.5 -70t52.5 -42t74.5 -19t95.5 -5z" />
<glyph unicode="&#xd7;" horiz-adv-x="534" d="M123 497l144 -144l-43 -43l-144 144zM454 454l-144 -144l-43 43l144 144zM80 166l144 144l43 -43l-144 -144zM267 267l43 43l144 -144l-43 -43z" />
<glyph unicode="&#xd8;" horiz-adv-x="989" d="M729 686q99 -46 154.5 -129.5t55.5 -194.5q0 -172 -123.5 -274.5t-320.5 -102.5q-92 0 -170 24l-26 -44l-52 31l20 34q-102 46 -159.5 131.5t-57.5 200.5q0 168 125 270t320 102q96 0 177 -26l26 44l52 -31zM255 361q0 -56 30 -97.5t83 -64.5l201 337q-37 8 -75 8 q-103 0 -171 -50t-68 -133zM495 175q104 0 171.5 50.5t67.5 135.5q0 105 -106 156l-200 -336q32 -6 67 -6z" />
<glyph unicode="&#xd9;" horiz-adv-x="934" d="M454 745l-168 175h175l37 -175h-44zM467 -15q-199 0 -308 98.5t-109 253.5v383h200v-342q0 -106 47 -154.5t170 -48.5t170 48.5t47 154.5v342h200v-383q0 -155 -109 -253.5t-308 -98.5z" />
<glyph unicode="&#xda;" horiz-adv-x="934" d="M451 745l37 175h175l-168 -175h-44zM467 -15q-199 0 -308 98.5t-109 253.5v383h200v-342q0 -106 47 -154.5t170 -48.5t170 48.5t47 154.5v342h200v-383q0 -155 -109 -253.5t-308 -98.5z" />
<glyph unicode="&#xdb;" horiz-adv-x="934" d="M466 863l-46 -118h-144l168 175h44l168 -175h-144zM684 720h200v-383q0 -155 -109 -253.5t-308 -98.5t-308 98.5t-109 253.5v383h200v-342q0 -106 47 -154.5t170 -48.5t170 48.5t47 154.5v342z" />
<glyph unicode="&#xdc;" horiz-adv-x="934" d="M467 -15q-199 0 -308 98.5t-109 253.5v383h200v-342q0 -106 47 -154.5t170 -48.5t170 48.5t47 154.5v342h200v-383q0 -155 -109 -253.5t-308 -98.5zM365 558q-34 -1 -58 23t-24 58q0 33 24 57t58 24q33 0 57 -24t24 -57t-24 -56.5t-57 -24.5zM569 558q-34 -1 -58 23 t-24 58q0 33 24 57t58 24q33 0 57 -24t24 -57t-24 -56.5t-57 -24.5z" />
<glyph unicode="&#xdd;" horiz-adv-x="950" d="M666 920l-168 -175h-44l37 175h175zM930 720l-354 -484v-236h-201v238l-355 482h240l216 -297l214 297h240z" />
<glyph unicode="&#xde;" horiz-adv-x="865" d="M547 600q142 0 212.5 -66t70.5 -170q0 -37 -3 -63t-19 -61.5t-44 -57.5t-82.5 -38t-130.5 -16h-300v-128h-201v720h201v-120h296zM478 308q96 0 126.5 8.5t30.5 48.5q0 20 -7 31.5t-30.5 16.5t-45 6t-74.5 1h-228v-112h228z" />
<glyph unicode="&#xdf;" horiz-adv-x="1033" d="M737 375q44 0 83.5 -8t79.5 -27t64 -59.5t24 -98.5q0 -87 -76 -142.5t-224 -55.5q-97 0 -161 17.5t-132 62.5l24 165q65 -42 125 -61t161 -19q82 0 82 31q0 18 -18 24.5t-65 6.5q-155 0 -225.5 42.5t-70.5 143.5q0 76 62.5 122t148.5 46q-47 13 -98.5 6t-95 -26t-72 -63 t-28.5 -103v-379h-200v396v6h-75v167h123q39 61 107 101t144 55t156.5 8.5t147 -32t113.5 -73.5t57 -109l-71 -107q-71 30 -145 25.5t-74 -35.5q0 -12 12 -18.5t25 -7.5t37 -1h55z" />
<glyph unicode="&#xe0;" d="M424 621h-44l-168 175h175zM364 585q114 0 203.5 -25t147 -83.5t57.5 -144.5v-332h-147l-28 63q-74 -78 -254 -78q-74 0 -138 19t-109.5 64t-45.5 110t47.5 110t116 64t150.5 18q149 -2 208 -57q2 51 -51.5 81.5t-156.5 30.5q-151 0 -249 -56l-56 145q56 33 143.5 52 t161.5 19zM250 178q0 -22 46 -32t103 -10q130 0 173 42q-40 42 -169 42q-70 0 -111.5 -11t-41.5 -31z" />
<glyph unicode="&#xe1;" d="M585 796l-168 -175h-44l37 175h175zM364 585q114 0 203.5 -25t147 -83.5t57.5 -144.5v-332h-147l-28 63q-74 -78 -254 -78q-74 0 -138 19t-109.5 64t-45.5 110t47.5 110t116 64t150.5 18q149 -2 208 -57q2 51 -51.5 81.5t-156.5 30.5q-151 0 -249 -56l-56 145 q56 33 143.5 52t161.5 19zM250 178q0 -22 46 -32t103 -10q130 0 173 42q-40 42 -169 42q-70 0 -111.5 -11t-41.5 -31z" />
<glyph unicode="&#xe2;" d="M399 739l-46 -118h-144l168 175h44l168 -175h-144zM364 585q114 0 203.5 -25t147 -83.5t57.5 -144.5v-332h-147l-28 63q-74 -78 -254 -78q-74 0 -138 19t-109.5 64t-45.5 110t47.5 110t116 64t150.5 18q149 -2 208 -57q2 51 -51.5 81.5t-156.5 30.5q-151 0 -249 -56 l-56 145q56 33 143.5 52t161.5 19zM250 178q0 -22 46 -32t103 -10q130 0 173 42q-40 42 -169 42q-70 0 -111.5 -11t-41.5 -31z" />
<glyph unicode="&#xe3;" d="M262 638v-17h-58v35q0 37 36.5 63t79.5 26q48 0 94.5 -32.5t77.5 -32.5q26 0 42 13t16 35v17h58v-35q0 -38 -36 -63.5t-80 -25.5q-40 0 -88 32.5t-84 32.5q-26 0 -42 -13t-16 -35zM364 585q114 0 203.5 -25t147 -83.5t57.5 -144.5v-332h-147l-28 63q-74 -78 -254 -78 q-74 0 -138 19t-109.5 64t-45.5 110t47.5 110t116 64t150.5 18q149 -2 208 -57q2 51 -51.5 81.5t-156.5 30.5q-151 0 -249 -56l-56 145q56 33 143.5 52t161.5 19zM250 178q0 -22 46 -32t103 -10q130 0 173 42q-40 42 -169 42q-70 0 -111.5 -11t-41.5 -31z" />
<glyph unicode="&#xe4;" d="M263 620q-34 -1 -58 23t-24 58q0 33 24 57t58 24q33 0 57 -24t24 -57t-24 -56.5t-57 -24.5zM547 620q-34 -1 -58 23t-24 58q0 33 24 57t58 24q33 0 57 -24t24 -57t-24 -56.5t-57 -24.5zM364 585q114 0 203.5 -25t147 -83.5t57.5 -144.5v-332h-147l-28 63 q-74 -78 -254 -78q-74 0 -138 19t-109.5 64t-45.5 110t47.5 110t116 64t150.5 18q149 -2 208 -57q2 51 -51.5 81.5t-156.5 30.5q-151 0 -249 -56l-56 145q56 33 143.5 52t161.5 19zM250 178q0 -22 46 -32t103 -10q130 0 173 42q-40 42 -169 42q-70 0 -111.5 -11t-41.5 -31z " />
<glyph unicode="&#xe5;" d="M398 621q-41 0 -70 29t-29 70t29 70t70 29t70 -29t29 -70t-29 -70t-70 -29zM398 779q-24 0 -41.5 -17.5t-17.5 -41.5t17.5 -41.5t41.5 -17.5t41.5 17.5t17.5 41.5t-17.5 41.5t-41.5 17.5zM364 585q114 0 203.5 -25t147 -83.5t57.5 -144.5v-332h-147l-28 63 q-74 -78 -254 -78q-74 0 -138 19t-109.5 64t-45.5 110t47.5 110t116 64t150.5 18q149 -2 208 -57q2 51 -51.5 81.5t-156.5 30.5q-151 0 -249 -56l-56 145q56 33 143.5 52t161.5 19zM250 178q0 -22 46 -32t103 -10q130 0 173 42q-40 42 -169 42q-70 0 -111.5 -11t-41.5 -31z " />
<glyph unicode="&#xe6;" horiz-adv-x="1369" d="M958 145q161 0 252 43l68 -136q-112 -67 -321 -67q-90 0 -171.5 26t-134.5 80q-32 -53 -119 -79.5t-189 -26.5q-74 0 -138 19t-109.5 64t-45.5 110t47.5 110t116 64t150.5 18q149 -2 208 -57q2 51 -51.5 81.5t-156.5 30.5q-151 0 -249 -56l-56 145q56 33 143.5 52 t161.5 19q202 0 312 -75q97 75 278 75q365 0 365 -367h-538q32 -73 177 -73zM952 425q-84 0 -125.5 -16t-54.5 -51h351q-16 34 -54.5 50.5t-116.5 16.5zM399 136q130 0 173 42q-40 42 -169 42q-70 0 -111.5 -11t-41.5 -31q0 -22 46 -32t103 -10z" />
<glyph unicode="&#xe7;" horiz-adv-x="750" d="M401 -15q-174 0 -272.5 81t-98.5 219q0 136 102.5 218t272.5 82q85 0 173.5 -21t136.5 -64l-59 -166q-44 32 -109 53.5t-126 21.5q-83 0 -137 -32.5t-54 -91.5q0 -57 57 -90t143 -33q61 0 124.5 19.5t101.5 49.5l59 -161q-48 -43 -138 -64t-176 -21zM214 -214l168 175h44 l-37 -175h-175z" />
<glyph unicode="&#xe8;" d="M433 621h-44l-168 175h175zM411 145q161 0 252 43l68 -136q-112 -67 -321 -67q-71 0 -136 16.5t-121 50t-89 92t-34 134.5q-1 155 98.5 231t278.5 76q365 0 365 -367h-538q32 -73 177 -73zM405 425q-84 0 -125.5 -16t-54.5 -51h351q-16 34 -54.5 50.5t-116.5 16.5z" />
<glyph unicode="&#xe9;" d="M600 796l-168 -175h-44l37 175h175zM411 145q161 0 252 43l68 -136q-112 -67 -321 -67q-71 0 -136 16.5t-121 50t-89 92t-34 134.5q-1 155 98.5 231t278.5 76q365 0 365 -367h-538q32 -73 177 -73zM405 425q-84 0 -125.5 -16t-54.5 -51h351q-16 34 -54.5 50.5 t-116.5 16.5z" />
<glyph unicode="&#xea;" d="M411 739l-46 -118h-144l168 175h44l168 -175h-144zM411 145q161 0 252 43l68 -136q-112 -67 -321 -67q-71 0 -136 16.5t-121 50t-89 92t-34 134.5q-1 155 98.5 231t278.5 76q365 0 365 -367h-538q32 -73 177 -73zM405 425q-84 0 -125.5 -16t-54.5 -51h351 q-16 34 -54.5 50.5t-116.5 16.5z" />
<glyph unicode="&#xeb;" d="M271 620q-34 -1 -58 23t-24 58q0 33 24 57t58 24q33 0 57 -24t24 -57t-24 -56.5t-57 -24.5zM555 620q-34 -1 -58 23t-24 58q0 33 24 57t58 24q33 0 57 -24t24 -57t-24 -56.5t-57 -24.5zM411 145q161 0 252 43l68 -136q-112 -67 -321 -67q-71 0 -136 16.5t-121 50t-89 92 t-34 134.5q-1 155 98.5 231t278.5 76q365 0 365 -367h-538q32 -73 177 -73zM405 425q-84 0 -125.5 -16t-54.5 -51h351q-16 34 -54.5 50.5t-116.5 16.5z" />
<glyph unicode="&#xec;" horiz-adv-x="300" d="M148 621l-168 175h175l37 -175h-44zM50 0v570q45 -22 100 -22t100 22v-570h-200z" />
<glyph unicode="&#xed;" horiz-adv-x="300" d="M125 621l37 175h175l-168 -175h-44zM50 0v570q45 -22 100 -22t100 22v-570h-200z" />
<glyph unicode="&#xee;" horiz-adv-x="300" d="M150 739l-46 -118h-144l168 175h44l168 -175h-144zM50 570q45 -22 100 -22t100 22v-570h-200v570z" />
<glyph unicode="&#xef;" horiz-adv-x="462" d="M132 620q-34 -1 -58 23t-24 58q0 33 24 57t58 24q33 0 57 -24t24 -57t-24 -56.5t-57 -24.5zM331 620q-34 -1 -58 23t-24 58q0 33 24 57t58 24q33 0 57 -24t24 -57t-24 -56.5t-57 -24.5zM131 0v570q45 -22 100 -22t100 22v-570h-200z" />
<glyph unicode="&#xf0;" horiz-adv-x="839" d="M376 709q66 -10 123 -29.5t111.5 -53t93 -79t62 -111.5t23.5 -146q0 -135 -97.5 -220t-277.5 -85q-81 0 -143.5 11t-114 36t-79 72t-27.5 113q0 115 100.5 173.5t263.5 58.5q105 0 190 -46q-15 51 -83.5 89.5t-176.5 59.5l-15 -71l-55 11l14 68q-70 10 -157 10l38 150 q85 4 151 -4l14 66l55 -11zM414 146q161 0 203 71q-47 71 -203 71q-191 0 -191 -71q0 -36 57 -53.5t134 -17.5z" />
<glyph unicode="&#xf1;" horiz-adv-x="809" d="M292 638v-17h-58v35q0 37 36.5 63t79.5 26q48 0 94.5 -32.5t77.5 -32.5q26 0 42 13t16 35v17h58v-35q0 -38 -36 -63.5t-80 -25.5q-40 0 -88 32.5t-84 32.5q-26 0 -42 -13t-16 -35zM457 585q132 0 217 -73.5t85 -222.5v-289h-200v285q0 139 -142 139q-48 0 -94 -20.5 t-73 -64.5v-339h-200v570h147l38 -127q27 60 89 101t133 41z" />
<glyph unicode="&#xf2;" horiz-adv-x="786" d="M369 621l-168 175h175l37 -175h-44zM393 -15q-163 0 -263 82.5t-100 220.5q0 135 100 215t263 83q163 -3 263 -83t100 -215q0 -138 -100 -220.5t-263 -82.5zM393 150q78 0 120.5 35t42.5 103q0 64 -42.5 97.5t-120.5 35.5q-78 -2 -120.5 -35.5t-42.5 -97.5 q0 -68 42.5 -103t120.5 -35z" />
<glyph unicode="&#xf3;" horiz-adv-x="786" d="M369 621l37 175h175l-168 -175h-44zM393 -15q-163 0 -263 82.5t-100 220.5q0 135 100 215t263 83q163 -3 263 -83t100 -215q0 -138 -100 -220.5t-263 -82.5zM393 150q78 0 120.5 35t42.5 103q0 64 -42.5 97.5t-120.5 35.5q-78 -2 -120.5 -35.5t-42.5 -97.5 q0 -68 42.5 -103t120.5 -35z" />
<glyph unicode="&#xf4;" horiz-adv-x="786" d="M391 739l-46 -118h-144l168 175h44l168 -175h-144zM393 586q163 -3 263 -83t100 -215q0 -138 -100 -220.5t-263 -82.5t-263 82.5t-100 220.5q0 135 100 215t263 83zM393 150q78 0 120.5 35t42.5 103q0 64 -42.5 97.5t-120.5 35.5q-78 -2 -120.5 -35.5t-42.5 -97.5 q0 -68 42.5 -103t120.5 -35z" />
<glyph unicode="&#xf5;" horiz-adv-x="786" d="M199 621v35q0 37 36.5 63t79.5 26q48 0 94.5 -32.5t77.5 -32.5q26 0 42 13t16 35v17h58v-35q0 -38 -36 -63.5t-80 -25.5q-40 0 -88 32.5t-84 32.5q-26 0 -42 -13t-16 -35v-17h-58zM393 -15q-163 0 -263 82.5t-100 220.5q0 135 100 215t263 83q163 -3 263 -83t100 -215 q0 -138 -100 -220.5t-263 -82.5zM393 150q78 0 120.5 35t42.5 103q0 64 -42.5 97.5t-120.5 35.5q-78 -2 -120.5 -35.5t-42.5 -97.5q0 -68 42.5 -103t120.5 -35z" />
<glyph unicode="&#xf6;" horiz-adv-x="786" d="M251 620q-34 -1 -58 23t-24 58q0 33 24 57t58 24q33 0 57 -24t24 -57t-24 -56.5t-57 -24.5zM535 620q-34 -1 -58 23t-24 58q0 33 24 57t58 24q33 0 57 -24t24 -57t-24 -56.5t-57 -24.5zM393 -15q-163 0 -263 82.5t-100 220.5q0 135 100 215t263 83q163 -3 263 -83 t100 -215q0 -138 -100 -220.5t-263 -82.5zM393 150q78 0 120.5 35t42.5 103q0 64 -42.5 97.5t-120.5 35.5q-78 -2 -120.5 -35.5t-42.5 -97.5q0 -68 42.5 -103t120.5 -35z" />
<glyph unicode="&#xf7;" horiz-adv-x="750" d="M375 375q-41 0 -69.5 28.5t-28.5 69.5q0 40 29 68.5t69 28.5t68.5 -28.5t28.5 -68.5t-28.5 -69t-68.5 -29zM50 259v60h650v-60h-650zM375 0q-41 0 -69.5 29t-28.5 69t29 68.5t69 28.5t68.5 -28.5t28.5 -68.5t-28.5 -69t-68.5 -29z" />
<glyph unicode="&#xf8;" horiz-adv-x="779" d="M576 547q81 -37 127 -104t46 -155q0 -139 -99 -221t-262 -82q-75 0 -135 18l-22 -37l-55 33l16 27q-77 37 -119.5 104.5t-42.5 157.5q0 135 98 215.5t261 82.5q65 -1 126 -17l25 42l55 -33zM226 288q0 -77 54 -114l147 247q-18 3 -39 3q-78 -2 -120 -37t-42 -99zM388 147 q77 0 119 36.5t42 104.5q0 76 -60 111l-148 -248q19 -4 47 -4z" />
<glyph unicode="&#xf9;" horiz-adv-x="809" d="M425 621h-44l-168 175h175zM559 570h200v-570h-147l-37 126q-27 -61 -87 -101t-136 -40q-132 0 -217 73.5t-85 222.5v289h200v-285q0 -139 142 -139q48 0 94 20.5t73 64.5v339z" />
<glyph unicode="&#xfa;" horiz-adv-x="809" d="M581 796l-168 -175h-44l37 175h175zM559 570h200v-570h-147l-37 126q-27 -61 -87 -101t-136 -40q-132 0 -217 73.5t-85 222.5v289h200v-285q0 -139 142 -139q48 0 94 20.5t73 64.5v339z" />
<glyph unicode="&#xfb;" horiz-adv-x="809" d="M400 739l-46 -118h-144l168 175h44l168 -175h-144zM559 570h200v-570h-147l-37 126q-27 -61 -87 -101t-136 -40q-132 0 -217 73.5t-85 222.5v289h200v-285q0 -139 142 -139q48 0 94 20.5t73 64.5v339z" />
<glyph unicode="&#xfc;" horiz-adv-x="809" d="M261 620q-34 -1 -58 23t-24 58q0 33 24 57t58 24q33 0 57 -24t24 -57t-24 -56.5t-57 -24.5zM545 620q-34 -1 -58 23t-24 58q0 33 24 57t58 24q33 0 57 -24t24 -57t-24 -56.5t-57 -24.5zM559 570h200v-570h-147l-37 126q-27 -61 -87 -101t-136 -40q-132 0 -217 73.5 t-85 222.5v289h200v-285q0 -139 142 -139q48 0 94 20.5t73 64.5v339z" />
<glyph unicode="&#xfd;" horiz-adv-x="882" d="M621 796l-168 -175h-44l37 175h175zM643 570h224l-406 -697h-222l91 157l-315 540h224l202 -349z" />
<glyph unicode="&#xfe;" horiz-adv-x="808" d="M468 585q55 0 109 -19t99.5 -55t73.5 -95.5t28 -133.5q0 -71 -28.5 -129.5t-74 -94t-99.5 -54.5t-109 -19q-70 0 -128 31.5t-89 87.5v-231h-200v847h200v-233q35 48 92.5 73t125.5 25zM408 146q69 0 119.5 36t50.5 100q0 68 -49.5 104.5t-120.5 36.5q-69 0 -113.5 -37.5 t-44.5 -103.5q0 -62 45.5 -98t112.5 -38z" />
<glyph unicode="&#xff;" horiz-adv-x="882" d="M301 620q-34 -1 -58 23t-24 58q0 33 24 57t58 24q33 0 57 -24t24 -57t-24 -56.5t-57 -24.5zM585 620q-34 -1 -58 23t-24 58q0 33 24 57t58 24q33 0 57 -24t24 -57t-24 -56.5t-57 -24.5zM646 570h221l-406 -697h-219l89 154l-316 543h221l205 -354z" />
<glyph unicode="&#x13f;" horiz-adv-x="830" d="M50 0v720h200v-540h545v-180h-745zM528 365q-34 -1 -58 23t-24 58q0 33 24 57t58 24q33 0 57 -24t24 -57t-24 -56.5t-57 -24.5z" />
<glyph unicode="&#x140;" horiz-adv-x="507" d="M50 0v720h200v-720h-200zM376 295q-34 -1 -58 23t-24 58q0 33 24 57t58 24q33 0 57 -24t24 -57t-24 -56.5t-57 -24.5z" />
<glyph unicode="&#x152;" horiz-adv-x="1538" d="M1488 275h-554v-95h552l1 -180h-753v35q-106 -50 -239 -50q-197 0 -321 102.5t-124 274.5q0 168 125 270t320 102q133 0 239 -50v36h753v-180h-553v-95h554v-170zM495 175q104 0 171.5 50.5t67.5 135.5q0 83 -68 133t-172 50q-103 0 -171 -50t-68 -133q0 -85 68 -135.5 t172 -50.5z" />
<glyph unicode="&#x153;" horiz-adv-x="1349" d="M938 145q161 0 252 43l68 -136q-112 -67 -321 -67q-174 0 -280 83q-100 -83 -264 -83q-163 0 -263 82.5t-100 220.5q0 135 100 215t263 83q161 -3 259 -80q95 79 282 79q365 0 365 -367h-538q32 -73 177 -73zM932 425q-84 0 -125.5 -16t-54.5 -51h351q-16 34 -54.5 50.5 t-116.5 16.5zM393 150q78 0 120.5 35t42.5 103q0 64 -42.5 97.5t-120.5 35.5q-78 -2 -120.5 -35.5t-42.5 -97.5q0 -68 42.5 -103t120.5 -35z" />
<glyph unicode="&#x178;" horiz-adv-x="950" d="M328 745q-34 -1 -58 23t-24 58q0 33 24 57t58 24q33 0 57 -24t24 -57t-24 -56.5t-57 -24.5zM612 745q-34 -1 -58 23t-24 58q0 33 24 57t58 24q33 0 57 -24t24 -57t-24 -56.5t-57 -24.5zM930 720l-354 -484v-236h-201v238l-355 482h240l216 -297l214 297h240z" />
<glyph unicode="&#x2c6;" horiz-adv-x="430" d="M405 545h-144l-46 118l-46 -118h-144l168 175h44z" />
<glyph unicode="&#x2dc;" horiz-adv-x="500" d="M354 607q-49 0 -107 39t-101 39q-32 0 -51 -15.5t-19 -41.5v-16h-51v16q0 45 35 76t86 31q46 0 81 -19.5t64.5 -39t62.5 -19.5q32 0 51 15.5t19 41.5v16h51v-16q0 -45 -35 -76t-86 -31z" />
<glyph unicode="&#x2013;" horiz-adv-x="883" d="M100 271v60h683v-60h-683z" />
<glyph unicode="&#x2014;" horiz-adv-x="1020" d="M100 271v60h820v-60h-820z" />
<glyph unicode="&#x2018;" horiz-adv-x="329" d="M55 466l159 254h60l-44 -254h-175z" />
<glyph unicode="&#x2019;" horiz-adv-x="329" d="M55 466l44 254h175l-159 -254h-60z" />
<glyph unicode="&#x201a;" horiz-adv-x="329" d="M55 -127l44 254h175l-159 -254h-60z" />
<glyph unicode="&#x201c;" horiz-adv-x="569" d="M50 466l159 254h60l-44 -254h-175zM300 466l159 254h60l-44 -254h-175z" />
<glyph unicode="&#x201d;" horiz-adv-x="559" d="M50 466l44 254h175l-159 -254h-60zM290 466l44 254h175l-159 -254h-60z" />
<glyph unicode="&#x201e;" horiz-adv-x="559" d="M50 -127l44 254h175l-159 -254h-60zM290 -127l44 254h175l-159 -254h-60z" />
<glyph unicode="&#x2022;" horiz-adv-x="440" d="M220 161q-58 0 -99 40.5t-41 98.5t41 99t99 41t99 -41t41 -99t-41 -98.5t-99 -40.5z" />
<glyph unicode="&#x2026;" horiz-adv-x="895" d="M148 0q-40 0 -69 29t-29 69t29 68.5t69 28.5t68.5 -28.5t28.5 -68.5t-28.5 -69t-68.5 -29zM448 0q-40 0 -69 29t-29 69t29 68.5t69 28.5t68.5 -28.5t28.5 -68.5t-28.5 -69t-68.5 -29zM748 0q-40 0 -69 29t-29 69t29 68.5t69 28.5t68.5 -28.5t28.5 -68.5t-28.5 -69 t-68.5 -29z" />
<glyph unicode="&#x2039;" horiz-adv-x="379" d="M268 72l-238 218l238 220h61l-118 -219l118 -219h-61z" />
<glyph unicode="&#x203a;" horiz-adv-x="379" d="M50 72l118 219l-118 219h61l238 -220l-238 -218h-61z" />
<glyph unicode="&#x20ac;" horiz-adv-x="997" d="M609 175q71 0 159.5 26t137.5 60l61 -170q-60 -52 -169.5 -79t-201.5 -27q-180 0 -298.5 76.5t-148.5 210.5h-99v60h91q-1 9 -1 27q0 14 2 38h-92v60h102q35 129 153 203t291 74q92 0 201.5 -27t169.5 -79l-63 -175q-48 39 -130 65t-157 26q-78 0 -141.5 -22t-97.5 -65 h336v-60h-365q-4 -16 -4 -37q0 -10 2 -28h367v-60h-343q31 -47 95 -72t143 -25z" />
<glyph unicode="&#x2122;" horiz-adv-x="979" d="M803 720h126v-352h-97v211l-91 -211h-113l-90 208v-208h-98v264h-130v-264h-97v264h-163v88h516l119 -265z" />
<glyph unicode="&#x25fc;" horiz-adv-x="570" d="M0 570h570v-570h-570v570z" />
<glyph horiz-adv-x="879" d="M50 220l69 321h38l96 -208l45 208h57l-71 -321h-39l-96 207l-42 -207h-57zM665 220l67 318h56l-56 -267h112l-16 -51h-163zM375 340l9 39h254l-7 -39h-256z" />
<glyph horiz-adv-x="876" d="M438 -15q-176 0 -279.5 82t-103.5 221q0 136 103.5 215.5t279.5 82.5q176 -3 279.5 -82.5t103.5 -215.5q0 -139 -103.5 -221t-279.5 -82zM438 150q183 0 183 138q0 130 -183 133q-183 -3 -183 -133q0 -138 183 -138z" />
<glyph horiz-adv-x="764" d="M477 150h232v-150h-654v150h232v194l-230 -142v184l299 184h121v-420z" />
<glyph horiz-adv-x="810" d="M450 199q-180 -10 -213 -40h494v-159h-673l-1 112v2q0 62 35.5 109.5t93.5 74t115.5 40t118.5 18.5q17 1 39 2t35.5 1.5t28.5 2t23.5 3.5t16.5 5t11 8.5t2 12.5q-3 27 -110 28q-108 1 -210.5 -26t-158.5 -71l-42 153q52 44 168 74.5t237 30.5q153 0 222.5 -44t76.5 -125 q4 -45 -5.5 -77.5t-40.5 -63t-97 -48.5t-166 -23z" />
<glyph horiz-adv-x="837" d="M727 239q70 -47 70 -120q0 -60 -30.5 -105t-84.5 -70.5t-120 -38t-144 -12.5q-108 0 -210 23.5t-158 61.5l37 155q57 -38 150 -59t183 -21t141 17.5t51 48.5q0 24 -38 33.5t-128 9.5h-90h-45v155h45h140q60 0 83 8t23 30q0 31 -49.5 48t-135.5 17q-89 0 -181.5 -21 t-148.5 -59l-37 155q56 38 157 61.5t208 23.5q75 0 139.5 -12.5t118.5 -38t84.5 -70t30.5 -104.5q0 -40 -11 -63.5t-50 -52.5z" />
<glyph horiz-adv-x="918" d="M682 239h186v-150h-186v-183h-190v183h-442v150q102 29 206 126t178 205l248 1v-332zM346 239h146v151q-22 -39 -62.5 -80.5t-83.5 -70.5z" />
<glyph horiz-adv-x="853" d="M330 352q118 -2 204 -16t136 -35.5t79.5 -54t39 -65t9.5 -75.5q0 -55 -25 -97t-69 -66t-99 -35.5t-120 -11.5q-117 0 -237 33.5t-193 84.5l37 161q67 -48 186.5 -79.5t215.5 -32.5q114 0 114 43q0 45 -71.5 66t-218.5 23h-179v375h651v-150h-461z" />
<glyph horiz-adv-x="910" d="M467 470q181 0 292 -60t111 -169q0 -242 -403 -242q-222 0 -324.5 83t-102.5 265q0 168 109 266.5t324 98.5q103 0 209.5 -23.5t177.5 -74.5l-36 -164q-62 49 -161 74t-199 24q-110 -1 -173.5 -40.5t-64.5 -92.5q41 25 108.5 40t132.5 15zM467 162q100 0 158.5 24.5 t58.5 54.5q0 28 -58 48t-159 20t-153 -17.5t-84 -49.5q71 -80 237 -80z" />
<glyph horiz-adv-x="766" d="M30 570h701v-122q-23 -17 -80.5 -56t-87 -61.5t-75 -69.5t-69 -92t-41.5 -116.5t-18 -155.5h-180q0 200 78 330t207 193h-435v150z" />
<glyph horiz-adv-x="886" d="M443 4q-193 0 -300.5 56t-107.5 156q0 121 98 152l11 4l-11 6q-69 33 -69 120q0 218 379 218t379 -218q0 -86 -68 -121l-12 -5l12 -4q97 -32 97 -152q0 -100 -107.5 -156t-300.5 -56zM443 446q90 0 145.5 13.5t55.5 38.5q0 26 -55 39.5t-146 13.5t-146 -13.5t-55 -39.5 q0 -25 55.5 -38.5t145.5 -13.5zM443 172q99 0 160 14.5t61 40.5t-61.5 40t-159.5 14t-159.5 -14t-61.5 -40t61 -40.5t160 -14.5z" />
<glyph horiz-adv-x="907" d="M450 582q217 0 317 -84.5t100 -262.5q0 -167 -113 -266t-304 -99q-96 0 -209.5 28t-200.5 86l35 160q99 -67 186 -89t189 -22q104 0 156.5 33t68.5 94q-90 -47 -225 -47q-187 0 -295.5 58t-108.5 158q0 119 105 186t299 67zM223 341q0 -30 62.5 -48t164.5 -18 q83 0 131.5 14t103.5 55q-88 75 -235 75q-97 0 -162 -23t-65 -55z" />
</font>
</defs>
</svg>
